<?xml version="1.0" encoding="utf-8"?>
<!-- Generator: Adobe Illustrator 22.0.1, SVG Export Plug-In . SVG Version: 6.00 Build 0)  -->
<svg version="1.1" id="Layer_1" xmlns="http://www.w3.org/2000/svg" xmlns:xlink="http://www.w3.org/1999/xlink" x="0px" y="0px"
	 viewBox="0 0 300 300" style="enable-background:new 0 0 300 300;" xml:space="preserve">
<style type="text/css">
	.st0{fill:#FFFFFF;}
	.st1{fill:#F15B4F;}
	.st2{fill:#52C9EE;}
	.st3{fill:#272827;}
</style>
<g>
	<g>
		<g>
			<g>
				<g>
					<g>
						<g>
							<rect x="9.6" y="99.4" class="st0" width="219.6" height="137.3"/>
						</g>
					</g>
					<g>
						<g>
							<rect x="9.6" y="72.8" class="st1" width="219.6" height="26.5"/>
						</g>
					</g>
					<g>
						<g>
							<path class="st2" d="M233.2,240.7H5.6V68.9h227.5V240.7z M13.5,232.8h211.7v-156H13.5V232.8z"/>
						</g>
					</g>
					<g>
						<g>
							<rect x="9.6" y="95.4" class="st2" width="219.6" height="7.9"/>
						</g>
					</g>
					<g>
						<g>
							<path class="st2" d="M29.1,86.1c0,2.3-1.8,4.1-4.1,4.1c-2.3,0-4.1-1.8-4.1-4.1c0-2.3,1.8-4.1,4.1-4.1
								C27.3,82,29.1,83.8,29.1,86.1z"/>
						</g>
					</g>
					<g>
						<g>
							<path class="st2" d="M44.8,86.1c0,2.3-1.8,4.1-4.1,4.1c-2.3,0-4.1-1.8-4.1-4.1c0-2.3,1.8-4.1,4.1-4.1
								C43,82,44.8,83.8,44.8,86.1z"/>
						</g>
					</g>
					<g>
						<g>
							<path class="st2" d="M60.5,86.1c0,2.3-1.8,4.1-4.1,4.1c-2.3,0-4.1-1.8-4.1-4.1c0-2.3,1.8-4.1,4.1-4.1
								C58.7,82,60.5,83.8,60.5,86.1z"/>
						</g>
					</g>
					<g>
						<g>
							<rect x="40.7" y="178.2" class="st2" width="67.4" height="7.9"/>
						</g>
					</g>
					<g>
						<g>
							<rect x="40.7" y="205.7" class="st2" width="67.4" height="7.9"/>
						</g>
					</g>
					<g>
						<g>
							<rect x="130.7" y="178.2" class="st2" width="67.4" height="7.9"/>
						</g>
					</g>
					<g>
						<g>
							<rect x="130.7" y="205.7" class="st2" width="67.4" height="7.9"/>
						</g>
					</g>
				</g>
			</g>
			<g>
				<g>
					<rect x="35.3" y="121.8" class="st1" width="168.8" height="33.7"/>
				</g>
			</g>
			<g>
				<g>
					<path class="st2" d="M208.1,159.4H31.4v-41.6h176.7V159.4z M39.3,151.5h160.9v-25.8H39.3V151.5z"/>
				</g>
			</g>
		</g>
		<g>
			<g>
				<g>
					<g>
						<rect x="180.6" y="72.9" class="st1" width="22.5" height="33.6"/>
					</g>
				</g>
				<g>
					<g>
						<path class="st2" d="M207.1,110.5h-30.4V69h30.4V110.5z M184.6,102.6h14.6V76.9h-14.6V102.6z"/>
					</g>
				</g>
				<g>
					<g>
						<polygon class="st2" points="203.2,72.9 203.2,89.8 203.2,106.6 244.7,128.5 244.7,89.8 244.7,51 						"/>
					</g>
				</g>
				<g>
					<g>
						<path class="st2" d="M248.7,135.1L199.2,109V70.5l49.4-26.1V135.1z M207.1,104.2l33.6,17.7V57.6l-33.6,17.7V104.2z"/>
					</g>
				</g>
			</g>
			<g>
				<g>
					<path class="st2" d="M267.9,112.6l-7-3.6c2.9-5.8,4.5-12.5,4.5-19.4c0-6.8-1.5-13.4-4.4-19.2l7.1-3.5
						c3.4,6.8,5.2,14.7,5.2,22.7C273.3,97.8,271.5,105.7,267.9,112.6z"/>
				</g>
			</g>
			<g>
				<g>
					<path class="st3" d="M285.9,126.4l-7.1-3.6c5-9.9,7.7-21.4,7.7-33.2c0-11.7-2.6-23.1-7.5-32.9l7.1-3.5
						c5.5,10.9,8.4,23.5,8.4,36.4C294.4,102.6,291.4,115.4,285.9,126.4z"/>
				</g>
			</g>
			<g>
				<g>
					<path class="st2" d="M285.9,126.4l-7.1-3.6c5-9.9,7.7-21.4,7.7-33.2c0-11.7-2.6-23.1-7.5-32.9l7.1-3.5
						c5.5,10.9,8.4,23.5,8.4,36.4C294.4,102.6,291.4,115.4,285.9,126.4z"/>
				</g>
			</g>
		</g>
	</g>
</g>
</svg>
