<?xml version="1.0" encoding="utf-8"?>
<!-- Generator: Adobe Illustrator 22.0.1, SVG Export Plug-In . SVG Version: 6.00 Build 0)  -->
<svg version="1.1" id="Layer_1" xmlns="http://www.w3.org/2000/svg" xmlns:xlink="http://www.w3.org/1999/xlink" x="0px" y="0px"
	 viewBox="0 0 1080 625" style="enable-background:new 0 0 1080 625;" xml:space="preserve">
<style type="text/css">
	.st0{opacity:0.5;}
	.st1{opacity:1.000000e-02;fill:#010101;}
	.st2{opacity:2.960000e-02;fill:#010101;}
	.st3{opacity:4.920000e-02;fill:#010101;}
	.st4{opacity:6.880000e-02;fill:#010101;}
	.st5{opacity:8.840000e-02;fill:#010101;}
	.st6{opacity:0.108;fill:#010101;}
	.st7{opacity:0.1276;fill:#010101;}
	.st8{opacity:0.1472;fill:#010101;}
	.st9{opacity:0.1668;fill:#010101;}
	.st10{opacity:0.1864;fill:#010101;}
	.st11{opacity:0.206;fill:#010101;}
	.st12{opacity:0.2256;fill:#010101;}
	.st13{opacity:0.2452;fill:#010101;}
	.st14{opacity:0.2648;fill:#010101;}
	.st15{opacity:0.2844;fill:#010101;}
	.st16{opacity:0.304;fill:#010101;}
	.st17{opacity:0.3236;fill:#010101;}
	.st18{opacity:0.3432;fill:#010101;}
	.st19{opacity:0.3628;fill:#010101;}
	.st20{opacity:0.3824;fill:#010101;}
	.st21{opacity:0.402;fill:#010101;}
	.st22{opacity:0.4216;fill:#010101;}
	.st23{opacity:0.4412;fill:#010101;}
	.st24{opacity:0.4608;fill:#010101;}
	.st25{opacity:0.4804;fill:#010101;}
	.st26{opacity:0.5;fill:#010101;}
	.st27{clip-path:url(#SVGID_1_);}
	.st28{fill:#009ACB;}
	.st29{opacity:0;fill:#010101;}
	.st30{opacity:1.190476e-02;fill:#010101;}
	.st31{opacity:2.380952e-02;fill:#010101;}
	.st32{opacity:3.571429e-02;fill:#010101;}
	.st33{opacity:4.761905e-02;fill:#010101;}
	.st34{opacity:5.952381e-02;fill:#010101;}
	.st35{opacity:7.142857e-02;fill:#010101;}
	.st36{opacity:8.333334e-02;fill:#010101;}
	.st37{opacity:9.523810e-02;fill:#010101;}
	.st38{opacity:0.1071;fill:#010101;}
	.st39{opacity:0.119;fill:#010101;}
	.st40{opacity:0.131;fill:#010101;}
	.st41{opacity:0.1429;fill:#010101;}
	.st42{opacity:0.1548;fill:#010101;}
	.st43{opacity:0.1667;fill:#010101;}
	.st44{opacity:0.1786;fill:#010101;}
	.st45{opacity:0.1905;fill:#010101;}
	.st46{opacity:0.2024;fill:#010101;}
	.st47{opacity:0.2143;fill:#010101;}
	.st48{opacity:0.2262;fill:#010101;}
	.st49{opacity:0.2381;fill:#010101;}
	.st50{opacity:0.25;fill:#010101;}
	.st51{fill:#52C9EE;}
	.st52{display:none;}
	.st53{display:inline;opacity:0;fill:#87D3E4;}
	.st54{display:inline;opacity:1.190476e-02;fill:#87D3E4;}
	.st55{display:inline;opacity:2.380952e-02;fill:#87D3E4;}
	.st56{display:inline;opacity:3.571429e-02;fill:#87D3E4;}
	.st57{display:inline;opacity:4.761905e-02;fill:#87D3E4;}
	.st58{display:inline;opacity:5.952381e-02;fill:#87D3E4;}
	.st59{display:inline;opacity:7.142857e-02;fill:#87D3E4;}
	.st60{display:inline;opacity:8.333334e-02;fill:#87D3E4;}
	.st61{display:inline;opacity:9.523810e-02;fill:#87D3E4;}
	.st62{display:inline;opacity:0.1071;fill:#87D3E4;}
	.st63{display:inline;opacity:0.119;fill:#87D3E4;}
	.st64{display:inline;opacity:0.131;fill:#87D3E4;}
	.st65{display:inline;opacity:0.1429;fill:#87D3E4;}
	.st66{display:inline;opacity:0.1548;fill:#87D3E4;}
	.st67{display:inline;opacity:0.1667;fill:#87D3E4;}
	.st68{display:inline;opacity:0.1786;fill:#87D3E4;}
	.st69{display:inline;opacity:0.1905;fill:#87D3E4;}
	.st70{display:inline;opacity:0.2024;fill:#87D3E4;}
	.st71{display:inline;opacity:0.2143;fill:#87D3E4;}
	.st72{display:inline;opacity:0.2262;fill:#87D3E4;}
	.st73{display:inline;opacity:0.2381;fill:#87D3E4;}
	.st74{display:inline;opacity:0.25;fill:#87D3E4;}
	.st75{fill:#019ACB;}
	.st76{fill:#87D3E4;}
	.st77{fill:#F15B4F;}
</style>
<g>
	<g class="st0">
		<path class="st1" d="M-612.2,686.7c0,0,1251-27.9,2083.1,2l1.5-67.8l-2084.9,6.3L-612.2,686.7z"/>
		<path class="st2" d="M-610.8,627.6l2081.4-6l-1.5,66.4c-824.5-29.9-2075.6-2-2079.7-1.9L-610.8,627.6z"/>
		<path class="st3" d="M-609.2,628.1l2077.9-5.7l-1.5,65c-816.9-29.8-2068.2-2.1-2076.2-1.8L-609.2,628.1z"/>
		<path class="st4" d="M-607.5,628.6l2074.4-5.5l-1.4,63.6c-809.3-29.8-2060.7-2.2-2072.7-1.7L-607.5,628.6z"/>
		<path class="st5" d="M-605.9,629l2070.9-5.2l-1.4,62.2c-801.8-29.8-2053.2-2.3-2069.3-1.7L-605.9,629z"/>
		<path class="st6" d="M-604.2,629.5l2067.4-4.9l-1.3,60.8c-794.2-29.7-2045.8-2.4-2065.8-1.6L-604.2,629.5z"/>
		<path class="st7" d="M-602.5,630l2064-4.7l-1.3,59.4c-786.6-29.7-2038.3-2.4-2062.4-1.5L-602.5,630z"/>
		<path class="st8" d="M-600.9,630.5l2060.5-4.4l-1.3,58c-779-29.7-2030.8-2.5-2058.9-1.4L-600.9,630.5z"/>
		<path class="st9" d="M-599.2,631l2057-4.1l-1.2,56.6c-771.4-29.7-2023.4-2.6-2055.5-1.3L-599.2,631z"/>
		<path class="st10" d="M-597.5,631.5l2053.5-3.8l-1.2,55.2c-763.9-29.6-2015.9-2.7-2052-1.3L-597.5,631.5z"/>
		<path class="st11" d="M-595.9,632l2050-3.6l-1.1,53.8c-756.3-29.6-2008.4-2.8-2048.5-1.2L-595.9,632z"/>
		<path class="st12" d="M-594.2,632.5l2046.5-3.3l-1.1,52.4c-748.7-29.6-2001-2.8-2045.1-1.1L-594.2,632.5z"/>
		<path class="st13" d="M-592.5,633l2043-3l-1,51c-741.1-29.5-1993.5-2.9-2041.6-1L-592.5,633z"/>
		<path class="st14" d="M-590.9,633.4l2039.5-2.8l-1,49.6c-733.5-29.5-1986-3-2038.2-0.9L-590.9,633.4z"/>
		<path class="st15" d="M-589.2,633.9l2036-2.5l-1,48.2c-725.9-29.5-1978.6-3.1-2034.7-0.9L-589.2,633.9z"/>
		<path class="st16" d="M-587.5,634.4l2032.5-2.2L1444,679c-718.4-29.5-1971.1-3.2-2031.3-0.8L-587.5,634.4z"/>
		<path class="st17" d="M-585.9,634.9l2029-2l-0.9,45.4c-710.8-29.4-1963.6-3.2-2027.8-0.7L-585.9,634.9z"/>
		<path class="st18" d="M-584.2,635.4l2025.5-1.7l-0.8,44c-703.2-29.4-1956.2-3.3-2024.4-0.6L-584.2,635.4z"/>
		<path class="st19" d="M-582.5,635.9l2022-1.4l-0.8,42.6c-695.6-29.4-1948.7-3.4-2020.9-0.6L-582.5,635.9z"/>
		<path class="st20" d="M-580.9,636.4l2018.5-1.2l-0.8,41.2c-688-29.3-1941.2-3.5-2017.4-0.5L-580.9,636.4z"/>
		<path class="st21" d="M-579.2,636.9l2015-0.9l-0.7,39.8c-680.5-29.3-1933.8-3.6-2014-0.4L-579.2,636.9z"/>
		<path class="st22" d="M-577.5,637.4l2011.5-0.6l-0.7,38.4c-672.9-29.3-1926.3-3.6-2010.5-0.3L-577.5,637.4z"/>
		<path class="st23" d="M-575.9,637.8l2008-0.3l-0.6,37c-665.3-29.3-1918.8-3.7-2007.1-0.2L-575.9,637.8z"/>
		<path class="st24" d="M-574.2,638.3l2004.5-0.1l-0.6,35.6c-657.7-29.2-1911.4-3.8-2003.6-0.2L-574.2,638.3z"/>
		<path class="st25" d="M-572.5,638.8l2001,0.2l-0.5,34.2c-650.1-29.2-1903.9-3.9-2000.2-0.1L-572.5,638.8z"/>
		<path class="st26" d="M-570.9,639.3l1997.5,0.5l-0.5,32.8c-642.6-29.2-1896.4-4-1996.7,0L-570.9,639.3z"/>
	</g>
	<g>
		<defs>
			<rect id="SVGID_5_" x="-610.9" y="1.1" width="2078.7" height="640.3"/>
		</defs>
		<use xlink:href="#SVGID_5_"  style="overflow:visible;fill:#FFFFFF;"/>
		<clipPath id="SVGID_1_">
			<use xlink:href="#SVGID_5_"  style="overflow:visible;"/>
		</clipPath>
		<g class="st27">
			<rect x="-382.1" y="-14.8" class="st28" width="2100.4" height="667.4"/>
			<g>
				<g>
					
						<rect x="-457" y="-605.8" transform="matrix(0.7071 -0.7071 0.7071 0.7071 50.9014 318.1532)" class="st29" width="1733" height="1406.9"/>
					
						<rect x="-456.8" y="-605.5" transform="matrix(0.7071 -0.7071 0.7071 0.7071 50.9013 318.1531)" class="st30" width="1732.5" height="1406.4"/>
					
						<rect x="-456.5" y="-605.3" transform="matrix(0.7071 -0.7071 0.7071 0.7071 50.9013 318.1531)" class="st31" width="1732" height="1405.9"/>
					
						<rect x="-456.2" y="-605.1" transform="matrix(0.7071 -0.7071 0.7071 0.7071 50.9013 318.1531)" class="st32" width="1731.5" height="1405.4"/>
					
						<rect x="-456" y="-604.8" transform="matrix(0.7071 -0.7071 0.7071 0.7071 50.9013 318.153)" class="st33" width="1730.9" height="1404.9"/>
					
						<rect x="-455.7" y="-604.6" transform="matrix(0.7071 -0.7071 0.7071 0.7071 50.9013 318.153)" class="st34" width="1730.4" height="1404.4"/>
					
						<rect x="-455.4" y="-604.3" transform="matrix(0.7071 -0.7071 0.7071 0.7071 50.9013 318.153)" class="st35" width="1729.9" height="1403.9"/>
					
						<rect x="-455.2" y="-604.1" transform="matrix(0.7071 -0.7071 0.7071 0.7071 50.9012 318.1529)" class="st36" width="1729.4" height="1403.4"/>
					
						<rect x="-454.9" y="-603.8" transform="matrix(0.7071 -0.7071 0.7071 0.7071 50.9012 318.1529)" class="st37" width="1728.8" height="1402.9"/>
					
						<rect x="-454.7" y="-603.6" transform="matrix(0.7071 -0.7071 0.7071 0.7071 50.9012 318.1529)" class="st38" width="1728.3" height="1402.4"/>
					
						<rect x="-454.4" y="-603.3" transform="matrix(0.7071 -0.7071 0.7071 0.7071 50.9012 318.1528)" class="st39" width="1727.8" height="1401.9"/>
					
						<rect x="-454.1" y="-603.1" transform="matrix(0.7071 -0.7071 0.7071 0.7071 50.9012 318.1528)" class="st40" width="1727.2" height="1401.5"/>
					
						<rect x="-453.9" y="-602.8" transform="matrix(0.7071 -0.7071 0.7071 0.7071 50.9012 318.1528)" class="st41" width="1726.7" height="1401"/>
					
						<rect x="-453.6" y="-602.6" transform="matrix(0.7071 -0.7071 0.7071 0.7071 50.9011 318.1527)" class="st42" width="1726.2" height="1400.5"/>
					
						<rect x="-453.3" y="-602.4" transform="matrix(0.7071 -0.7071 0.7071 0.7071 50.9011 318.1527)" class="st43" width="1725.7" height="1400"/>
					
						<rect x="-453.1" y="-602.1" transform="matrix(0.7071 -0.7071 0.7071 0.7071 50.9011 318.1527)" class="st44" width="1725.1" height="1399.5"/>
					
						<rect x="-452.8" y="-601.9" transform="matrix(0.7071 -0.7071 0.7071 0.7071 50.9011 318.1526)" class="st45" width="1724.6" height="1399"/>
					
						<rect x="-452.5" y="-601.6" transform="matrix(0.7071 -0.7071 0.7071 0.7071 50.9011 318.1526)" class="st46" width="1724.1" height="1398.5"/>
					
						<rect x="-452.3" y="-601.4" transform="matrix(0.7071 -0.7071 0.7071 0.7071 50.9011 318.1526)" class="st47" width="1723.5" height="1398"/>
					
						<rect x="-452" y="-601.1" transform="matrix(0.7071 -0.7071 0.7071 0.7071 50.901 318.1526)" class="st48" width="1723" height="1397.5"/>
					
						<rect x="-451.8" y="-600.9" transform="matrix(0.7071 -0.7071 0.7071 0.7071 50.901 318.1525)" class="st49" width="1722.5" height="1397"/>
					
						<rect x="-451.5" y="-600.6" transform="matrix(0.7071 -0.7071 0.7071 0.7071 50.901 318.1525)" class="st50" width="1722" height="1396.5"/>
				</g>
				
					<rect x="-295.9" y="-770.5" transform="matrix(-0.7071 -0.7071 0.7071 -0.7071 626.3984 447.4981)" class="st51" width="1403.5" height="1728.9"/>
			</g>
			<g>
				<g class="st52">
					<path class="st53" d="M1483.7,398.3c-104.9,0-206.6-20.5-302.4-61c-92.5-39.1-175.6-95.1-246.9-166.5
						C863.1,99.4,807.1,16.4,767.9-76.1c-40.5-95.8-61-197.5-61-302.4c0-104.9,20.5-206.6,61-302.4
						c39.1-92.5,95.1-175.6,166.5-246.9c71.3-71.3,154.4-127.4,246.9-166.5c95.8-40.5,197.5-61,302.4-61s206.6,20.5,302.4,61
						c92.5,39.1,175.6,95.1,246.9,166.5c71.3,71.3,127.4,154.4,166.5,246.9c40.5,95.8,61,197.5,61,302.4
						c0,104.9-20.5,206.6-61,302.4c-39.1,92.5-95.1,175.6-166.5,246.9c-71.3,71.3-154.4,127.4-246.9,166.5
						C1690.3,377.8,1588.6,398.3,1483.7,398.3z"/>
					<path class="st54" d="M1483.7,397.8c-104.8,0-206.5-20.5-302.2-61c-92.4-39.1-175.5-95.1-246.8-166.4
						C863.5,99.1,807.5,16.1,768.4-76.3c-40.5-95.7-61-197.4-61-302.2c0-104.8,20.5-206.5,61-302.2
						c39.1-92.4,95.1-175.5,166.4-246.7c71.3-71.3,154.3-127.3,246.8-166.4c95.7-40.5,197.4-61,302.2-61s206.5,20.5,302.2,61
						c92.4,39.1,175.5,95.1,246.8,166.4c71.3,71.3,127.3,154.3,166.4,246.7c40.5,95.7,61,197.4,61,302.2
						c0,104.8-20.5,206.5-61,302.2c-39.1,92.4-95.1,175.5-166.4,246.8c-71.3,71.3-154.3,127.3-246.8,166.4
						C1690.2,377.2,1588.5,397.8,1483.7,397.8z"/>
					<path class="st55" d="M1483.7,397.2c-104.7,0-206.3-20.5-302-61c-92.4-39.1-175.3-95-246.6-166.3
						C863.9,98.8,808,15.8,768.9-76.6c-40.5-95.6-61-197.2-61-302c0-104.7,20.5-206.3,61-302c39.1-92.4,95-175.3,166.3-246.6
						c71.2-71.2,154.2-127.2,246.6-166.3c95.6-40.5,197.2-61,302-61s206.3,20.5,302,61c92.4,39.1,175.3,95,246.6,166.3
						c71.2,71.2,127.2,154.2,166.3,246.6c40.5,95.6,61,197.2,61,302c0,104.7-20.5,206.3-61,302c-39.1,92.4-95,175.3-166.3,246.6
						c-71.2,71.2-154.2,127.2-246.6,166.3C1690,376.7,1588.4,397.2,1483.7,397.2z"/>
					<path class="st56" d="M1483.7,396.7c-104.7,0-206.2-20.5-301.8-60.9c-92.3-39-175.2-94.9-246.4-166.1
						C864.3,98.5,808.4,15.6,769.4-76.8c-40.4-95.6-60.9-197.1-60.9-301.8c0-104.7,20.5-206.2,60.9-301.8
						c39-92.3,94.9-175.2,166.1-246.4c71.2-71.2,154.1-127.1,246.4-166.1c95.6-40.4,197.1-60.9,301.8-60.9
						c104.7,0,206.2,20.5,301.8,60.9c92.3,39,175.2,94.9,246.4,166.1c71.2,71.2,127.1,154.1,166.1,246.4
						c40.4,95.6,60.9,197.1,60.9,301.8c0,104.7-20.5,206.2-60.9,301.8c-39,92.3-94.9,175.2-166.1,246.4
						c-71.2,71.2-154.1,127.1-246.4,166.1C1689.9,376.2,1588.4,396.7,1483.7,396.7z"/>
					<path class="st57" d="M1483.7,396.2c-104.6,0-206-20.5-301.5-60.9c-92.2-39-175.1-94.9-246.2-166c-71.1-71.1-127-154-166-246.2
						c-40.4-95.5-60.9-197-60.9-301.5c0-104.6,20.5-206,60.9-301.5c39-92.2,94.9-175.1,166-246.2c71.1-71.1,154-127,246.2-166
						c95.5-40.4,197-60.9,301.5-60.9c104.6,0,206,20.5,301.5,60.9c92.2,39,175.1,94.9,246.2,166c71.1,71.1,127,154,166,246.2
						c40.4,95.5,60.9,197,60.9,301.5c0,104.6-20.5,206-60.9,301.5c-39,92.2-94.9,175.1-166,246.2c-71.1,71.1-154,127-246.2,166
						C1689.7,375.7,1588.3,396.2,1483.7,396.2z"/>
					<path class="st58" d="M1483.7,395.7c-104.5,0-205.9-20.5-301.3-60.8c-92.2-39-175-94.8-246.1-165.9
						C865.2,97.8,809.4,15,770.4-77.2C730-172.6,709.5-274,709.5-378.5c0-104.5,20.5-205.9,60.8-301.3c39-92.2,94.8-175,165.9-246.1
						c71.1-71.1,153.9-126.9,246.1-165.9c95.4-40.4,196.8-60.8,301.3-60.8c104.5,0,205.9,20.5,301.3,60.8
						c92.2,39,175,94.8,246.1,165.9C2102.2-854.8,2158-772,2197-679.9c40.4,95.4,60.8,196.8,60.8,301.3
						c0,104.5-20.5,205.9-60.8,301.3c-39,92.2-94.8,175-165.9,246.1C1960,240,1877.2,295.8,1785,334.8
						C1689.6,375.2,1588.2,395.7,1483.7,395.7z"/>
					<path class="st59" d="M1483.7,395.1c-104.4,0-205.8-20.5-301.1-60.8c-92.1-39-174.9-94.7-245.9-165.8
						C865.6,97.5,809.8,14.7,770.9-77.4c-40.3-95.4-60.8-196.7-60.8-301.1c0-104.4,20.5-205.8,60.8-301.1
						c39-92.1,94.7-174.9,165.8-245.9c71.1-71.1,153.8-126.8,245.9-165.8c95.4-40.3,196.7-60.8,301.1-60.8
						c104.4,0,205.8,20.5,301.1,60.8c92.1,39,174.9,94.7,245.9,165.8c71.1,71,126.8,153.8,165.8,245.9
						c40.3,95.4,60.8,196.7,60.8,301.1c0,104.4-20.5,205.8-60.8,301.1c-39,92.1-94.7,174.9-165.8,245.9
						c-71.1,71.1-153.8,126.8-245.9,165.8C1689.5,374.7,1588.1,395.1,1483.7,395.1z"/>
					<path class="st60" d="M1483.7,394.6c-104.4,0-205.6-20.4-300.9-60.8c-92.1-38.9-174.7-94.7-245.7-165.7
						c-71-71-126.7-153.7-165.7-245.7c-40.3-95.3-60.8-196.6-60.8-300.9c0-104.4,20.4-205.6,60.8-300.9
						C810.3-771.5,866-854.2,937-925.2c71-71,153.7-126.7,245.7-165.7c95.3-40.3,196.6-60.8,300.9-60.8
						c104.4,0,205.6,20.4,300.9,60.8c92.1,38.9,174.7,94.7,245.7,165.7c71,71,126.7,153.7,165.7,245.7
						c40.3,95.3,60.8,196.6,60.8,300.9c0,104.4-20.4,205.6-60.8,300.9c-38.9,92.1-94.7,174.7-165.7,245.7
						c-71,71-153.7,126.7-245.7,165.7C1689.3,374.2,1588.1,394.6,1483.7,394.6z"/>
					<path class="st61" d="M1483.7,394.1c-104.3,0-205.5-20.4-300.7-60.7c-92-38.9-174.6-94.6-245.6-165.6
						c-71-71-126.7-153.6-165.6-245.6c-40.3-95.2-60.7-196.4-60.7-300.7c0-104.3,20.4-205.5,60.7-300.7
						c38.9-92,94.6-174.6,165.6-245.6c71-71,153.6-126.7,245.6-165.6c95.2-40.3,196.4-60.7,300.7-60.7
						c104.3,0,205.5,20.4,300.7,60.7c92,38.9,174.6,94.6,245.6,165.6c71,71,126.7,153.6,165.6,245.6
						c40.3,95.2,60.7,196.4,60.7,300.7c0,104.3-20.4,205.5-60.7,300.7c-38.9,92-94.6,174.6-165.6,245.6
						c-71,71-153.6,126.7-245.6,165.6C1689.2,373.6,1588,394.1,1483.7,394.1z"/>
					<path class="st62" d="M1483.7,393.5c-104.2,0-205.3-20.4-300.5-60.7c-91.9-38.9-174.5-94.6-245.4-165.5
						C866.9,96.5,811.2,13.9,772.3-78c-40.3-95.2-60.7-196.3-60.7-300.5s20.4-205.3,60.7-300.5c38.9-91.9,94.6-174.5,165.5-245.4
						c70.9-70.9,153.5-126.6,245.4-165.5c95.2-40.3,196.3-60.7,300.5-60.7c104.2,0,205.3,20.4,300.5,60.7
						c91.9,38.9,174.5,94.6,245.4,165.5c70.9,70.9,126.6,153.5,165.5,245.4c40.3,95.2,60.7,196.3,60.7,300.5s-20.4,205.3-60.7,300.5
						c-38.9,91.9-94.6,174.5-165.5,245.4c-70.9,70.9-153.5,126.6-245.4,165.5C1689,373.1,1587.9,393.5,1483.7,393.5z"/>
					<path class="st63" d="M1483.7,393c-104.2,0-205.2-20.4-300.3-60.6c-91.9-38.9-174.4-94.5-245.2-165.3
						C867.3,96.2,811.7,13.7,772.8-78.2c-40.2-95.1-60.6-196.2-60.6-300.3s20.4-205.2,60.6-300.3c38.9-91.9,94.5-174.4,165.3-245.2
						c70.9-70.9,153.4-126.5,245.2-165.3c95.1-40.2,196.2-60.6,300.3-60.6c104.2,0,205.2,20.4,300.3,60.6
						c91.9,38.9,174.4,94.5,245.2,165.3c70.9,70.9,126.5,153.4,165.3,245.2c40.2,95.1,60.6,196.2,60.6,300.3s-20.4,205.2-60.6,300.3
						c-38.9,91.9-94.5,174.4-165.3,245.2c-70.9,70.9-153.4,126.5-245.2,165.3C1688.9,372.6,1587.9,393,1483.7,393z"/>
					<path class="st64" d="M1483.7,392.5c-104.1,0-205.1-20.4-300.1-60.6c-91.8-38.8-174.3-94.4-245.1-165.2
						C867.7,95.9,812.1,13.4,773.3-78.4c-40.2-95.1-60.6-196-60.6-300.1s20.4-205.1,60.6-300.1c38.8-91.8,94.4-174.3,165.2-245.1
						c70.8-70.8,153.3-126.4,245.1-165.2c95.1-40.2,196-60.6,300.1-60.6c104.1,0,205.1,20.4,300.1,60.6
						c91.8,38.8,174.3,94.4,245.1,165.2c70.8,70.8,126.4,153.3,165.2,245.1c40.2,95.1,60.6,196,60.6,300.1s-20.4,205.1-60.6,300.1
						c-38.8,91.8-94.4,174.3-165.2,245.1c-70.8,70.8-153.3,126.4-245.1,165.2C1688.8,372.1,1587.8,392.5,1483.7,392.5z"/>
					<path class="st65" d="M1483.7,392c-104,0-204.9-20.4-299.9-60.5c-91.7-38.8-174.1-94.4-244.9-165.1
						C868.1,95.5,812.6,13.1,773.8-78.6c-40.2-95-60.5-195.9-60.5-299.9s20.4-204.9,60.5-299.9c38.8-91.7,94.4-174.1,165.1-244.9
						c70.8-70.8,153.2-126.3,244.9-165.1c95-40.2,195.9-60.5,299.9-60.5c104,0,204.9,20.4,299.9,60.5
						c91.7,38.8,174.1,94.4,244.9,165.1c70.8,70.8,126.3,153.2,165.1,244.9c40.2,95,60.5,195.9,60.5,299.9s-20.4,204.9-60.5,299.9
						c-38.8,91.7-94.4,174.1-165.1,244.9c-70.8,70.8-153.2,126.3-244.9,165.1C1688.6,371.6,1587.7,392,1483.7,392z"/>
					<path class="st66" d="M1483.7,391.4c-103.9,0-204.8-20.4-299.7-60.5c-91.7-38.8-174-94.3-244.7-165
						C868.6,95.2,813,12.9,774.3-78.8c-40.1-94.9-60.5-195.8-60.5-299.7c0-103.9,20.4-204.8,60.5-299.7
						c38.8-91.7,94.3-174,165-244.7c70.7-70.7,153.1-126.2,244.7-165c94.9-40.1,195.8-60.5,299.7-60.5
						c103.9,0,204.8,20.4,299.7,60.5c91.7,38.8,174,94.3,244.7,165c70.7,70.7,126.2,153.1,165,244.7
						c40.1,94.9,60.5,195.8,60.5,299.7c0,103.9-20.4,204.8-60.5,299.7c-38.8,91.7-94.3,174-165,244.7
						c-70.7,70.7-153.1,126.2-244.7,165C1688.5,371.1,1587.6,391.4,1483.7,391.4z"/>
					<path class="st67" d="M1483.7,390.9c-103.9,0-204.6-20.3-299.5-60.5c-91.6-38.8-173.9-94.2-244.6-164.9
						C869,94.9,813.5,12.6,774.8-79c-40.1-94.9-60.5-195.6-60.5-299.5c0-103.9,20.3-204.6,60.5-299.5
						c38.8-91.6,94.2-173.9,164.9-244.6c70.7-70.7,152.9-126.1,244.6-164.9c94.9-40.1,195.6-60.5,299.5-60.5
						c103.9,0,204.6,20.3,299.5,60.5c91.6,38.8,173.9,94.2,244.6,164.9c70.7,70.7,126.1,152.9,164.9,244.6
						c40.1,94.9,60.5,195.6,60.5,299.5c0,103.9-20.3,204.6-60.5,299.5c-38.8,91.6-94.2,173.9-164.9,244.6
						c-70.7,70.7-152.9,126.1-244.6,164.9C1688.3,370.6,1587.6,390.9,1483.7,390.9z"/>
					<path class="st68" d="M1483.7,390.4c-103.8,0-204.5-20.3-299.3-60.4c-91.6-38.7-173.8-94.2-244.4-164.8
						C869.4,94.6,814,12.3,775.2-79.2c-40.1-94.8-60.4-195.5-60.4-299.3c0-103.8,20.3-204.5,60.4-299.3
						C814-769.4,869.4-851.6,940-922.2c70.6-70.6,152.8-126.1,244.4-164.8c94.8-40.1,195.5-60.4,299.3-60.4
						c103.8,0,204.5,20.3,299.3,60.4c91.6,38.7,173.8,94.2,244.4,164.8c70.6,70.6,126.1,152.8,164.8,244.4
						c40.1,94.8,60.4,195.5,60.4,299.3c0,103.8-20.3,204.5-60.4,299.3c-38.7,91.6-94.2,173.8-164.8,244.4
						c-70.6,70.6-152.8,126.1-244.4,164.8C1688.2,370,1587.5,390.4,1483.7,390.4z"/>
					<path class="st69" d="M1483.7,389.8c-103.7,0-204.4-20.3-299.1-60.4c-91.5-38.7-173.7-94.1-244.2-164.7
						c-70.6-70.6-126-152.7-164.7-244.2c-40.1-94.7-60.4-195.3-60.4-299.1c0-103.7,20.3-204.4,60.4-299.1
						c38.7-91.5,94.1-173.7,164.7-244.2c70.6-70.6,152.7-126,244.2-164.7c94.7-40.1,195.3-60.4,299.1-60.4
						c103.7,0,204.4,20.3,299.1,60.4c91.5,38.7,173.7,94.1,244.2,164.7c70.6,70.6,126,152.7,164.7,244.2
						c40.1,94.7,60.4,195.3,60.4,299.1c0,103.7-20.3,204.4-60.4,299.1C2153,12.1,2097.6,94.2,2027,164.8
						c-70.6,70.6-152.7,126-244.2,164.7C1688.1,369.5,1587.4,389.8,1483.7,389.8z"/>
					<path class="st70" d="M1483.7,389.3c-103.7,0-204.2-20.3-298.9-60.3c-91.4-38.7-173.5-94-244.1-164.6
						C870.3,93.9,814.9,11.8,776.2-79.6c-40-94.7-60.3-195.2-60.3-298.9c0-103.7,20.3-204.2,60.3-298.9
						c38.7-91.4,94-173.5,164.6-244.1c70.5-70.5,152.6-125.9,244.1-164.6c94.7-40,195.2-60.3,298.9-60.3
						c103.7,0,204.2,20.3,298.9,60.3c91.4,38.7,173.5,94,244.1,164.6c70.5,70.5,125.9,152.6,164.6,244.1
						c40,94.7,60.3,195.2,60.3,298.9c0,103.7-20.3,204.2-60.3,298.9c-38.7,91.4-94,173.5-164.6,244.1
						c-70.5,70.5-152.6,125.9-244.1,164.6C1687.9,369,1587.4,389.3,1483.7,389.3z"/>
					<path class="st71" d="M1483.7,388.8c-103.6,0-204.1-20.3-298.7-60.3c-91.4-38.6-173.4-94-243.9-164.4
						C870.7,93.6,815.3,11.5,776.7-79.8c-40-94.6-60.3-195.1-60.3-298.7c0-103.6,20.3-204.1,60.3-298.7
						c38.6-91.4,94-173.4,164.4-243.9c70.5-70.5,152.5-125.8,243.9-164.4c94.6-40,195.1-60.3,298.7-60.3
						c103.6,0,204.1,20.3,298.7,60.3c91.4,38.6,173.4,94,243.9,164.4c70.5,70.5,125.8,152.5,164.4,243.9
						c40,94.6,60.3,195.1,60.3,298.7c0,103.6-20.3,204.1-60.3,298.7c-38.6,91.4-94,173.4-164.4,243.9
						c-70.5,70.5-152.5,125.8-243.9,164.4C1687.8,368.5,1587.3,388.8,1483.7,388.8z"/>
					<path class="st72" d="M1483.7,388.3c-103.5,0-203.9-20.3-298.5-60.3c-91.3-38.6-173.3-93.9-243.7-164.3
						C871.1,93.3,815.8,11.3,777.2-80.1c-40-94.5-60.3-194.9-60.3-298.5c0-103.5,20.3-203.9,60.3-298.5
						c38.6-91.3,93.9-173.3,164.3-243.7c70.4-70.4,152.4-125.7,243.7-164.3c94.5-40,194.9-60.3,298.5-60.3
						c103.5,0,203.9,20.3,298.5,60.3c91.3,38.6,173.3,93.9,243.7,164.3c70.4,70.4,125.7,152.4,164.3,243.7
						c40,94.5,60.3,194.9,60.3,298.5c0,103.5-20.3,203.9-60.3,298.5c-38.6,91.3-93.9,173.3-164.3,243.7
						c-70.4,70.4-152.4,125.7-243.7,164.3C1687.6,368,1587.2,388.3,1483.7,388.3z"/>
					<path class="st73" d="M1483.7,387.7c-103.4,0-203.8-20.3-298.3-60.2c-91.2-38.6-173.2-93.8-243.6-164.2
						C871.5,92.9,816.3,11,777.7-80.3c-40-94.5-60.2-194.8-60.2-298.3c0-103.4,20.3-203.8,60.2-298.3
						C816.3-768,871.5-850,941.9-920.3c70.4-70.4,152.3-125.6,243.6-164.2c94.5-40,194.8-60.2,298.3-60.2
						c103.4,0,203.8,20.3,298.3,60.2c91.2,38.6,173.2,93.8,243.6,164.2c70.4,70.4,125.6,152.3,164.2,243.6
						c40,94.5,60.2,194.8,60.2,298.3c0,103.4-20.3,203.8-60.2,298.3c-38.6,91.2-93.8,173.2-164.2,243.6
						c-70.4,70.4-152.3,125.6-243.6,164.2C1687.5,367.5,1587.1,387.7,1483.7,387.7z"/>
					<path class="st74" d="M1483.7,387.2c-103.4,0-203.7-20.2-298-60.2c-91.2-38.6-173.1-93.8-243.4-164.1
						C871.9,92.6,816.7,10.7,778.2-80.5c-39.9-94.4-60.2-194.7-60.2-298c0-103.4,20.2-203.7,60.2-298
						c38.6-91.2,93.8-173.1,164.1-243.4c70.3-70.3,152.2-125.5,243.4-164.1c94.4-39.9,194.7-60.2,298-60.2
						c103.4,0,203.7,20.2,298,60.2c91.2,38.6,173.1,93.8,243.4,164.1c70.3,70.3,125.5,152.2,164.1,243.4
						c39.9,94.4,60.2,194.7,60.2,298c0,103.4-20.2,203.7-60.2,298c-38.6,91.2-93.8,173.1-164.1,243.4
						c-70.3,70.3-152.2,125.5-243.4,164.1C1687.3,367,1587.1,387.2,1483.7,387.2z"/>
				</g>
				<g>
					<defs>
						
							<ellipse id="SVGID_2_" transform="matrix(0.7071 -0.7071 0.7071 0.7071 705.9625 929.2198)" cx="1474.6" cy="-387.6" rx="769.2" ry="769.2"/>
					</defs>
					<use xlink:href="#SVGID_2_"  style="overflow:visible;fill:#87D3E4;"/>
					<clipPath id="SVGID_3_">
						<use xlink:href="#SVGID_2_"  style="overflow:visible;"/>
					</clipPath>
				</g>
			</g>
			<g>
				<g>
					
						<ellipse transform="matrix(0.7071 -0.7071 0.7071 0.7071 -415.3577 182.756)" class="st29" cx="12.9" cy="592.8" rx="155.4" ry="155.4"/>
					
						<ellipse transform="matrix(0.7071 -0.7071 0.7071 0.7071 -415.3577 182.756)" class="st30" cx="12.9" cy="592.8" rx="155.2" ry="155.2"/>
					
						<ellipse transform="matrix(0.7071 -0.7071 0.7071 0.7071 -415.3577 182.756)" class="st31" cx="12.9" cy="592.8" rx="154.9" ry="154.9"/>
					
						<ellipse transform="matrix(0.7071 -0.7071 0.7071 0.7071 -415.3577 182.756)" class="st32" cx="12.9" cy="592.8" rx="154.6" ry="154.6"/>
					
						<ellipse transform="matrix(0.7071 -0.7071 0.7071 0.7071 -415.3577 182.756)" class="st33" cx="12.9" cy="592.8" rx="154.4" ry="154.4"/>
					
						<ellipse transform="matrix(0.7071 -0.7071 0.7071 0.7071 -415.3577 182.756)" class="st34" cx="12.9" cy="592.8" rx="154.1" ry="154.1"/>
					
						<ellipse transform="matrix(0.7071 -0.7071 0.7071 0.7071 -415.3577 182.756)" class="st35" cx="12.9" cy="592.8" rx="153.8" ry="153.8"/>
					
						<ellipse transform="matrix(0.7071 -0.7071 0.7071 0.7071 -415.3577 182.756)" class="st36" cx="12.9" cy="592.8" rx="153.6" ry="153.6"/>
					
						<ellipse transform="matrix(0.7071 -0.7071 0.7071 0.7071 -415.3577 182.756)" class="st37" cx="12.9" cy="592.8" rx="153.3" ry="153.3"/>
					
						<ellipse transform="matrix(0.7071 -0.7071 0.7071 0.7071 -415.3576 182.756)" class="st38" cx="12.9" cy="592.8" rx="153" ry="153"/>
					
						<ellipse transform="matrix(0.7071 -0.7071 0.7071 0.7071 -415.3576 182.756)" class="st39" cx="12.9" cy="592.8" rx="152.8" ry="152.7"/>
					
						<ellipse transform="matrix(0.7071 -0.7071 0.7071 0.7071 -415.3576 182.756)" class="st40" cx="12.9" cy="592.8" rx="152.5" ry="152.5"/>
					
						<ellipse transform="matrix(0.7071 -0.7071 0.7071 0.7071 -415.3576 182.756)" class="st41" cx="12.9" cy="592.8" rx="152.2" ry="152.2"/>
					
						<ellipse transform="matrix(0.7071 -0.7071 0.7071 0.7071 -415.3576 182.756)" class="st42" cx="12.9" cy="592.8" rx="151.9" ry="151.9"/>
					
						<ellipse transform="matrix(0.7071 -0.7071 0.7071 0.7071 -415.3576 182.756)" class="st43" cx="12.9" cy="592.8" rx="151.7" ry="151.7"/>
					
						<ellipse transform="matrix(0.7071 -0.7071 0.7071 0.7071 -415.3576 182.756)" class="st44" cx="12.9" cy="592.8" rx="151.4" ry="151.4"/>
					
						<ellipse transform="matrix(0.7071 -0.7071 0.7071 0.7071 -415.3576 182.756)" class="st45" cx="12.9" cy="592.8" rx="151.1" ry="151.1"/>
					
						<ellipse transform="matrix(0.7071 -0.7071 0.7071 0.7071 -415.3576 182.756)" class="st46" cx="12.9" cy="592.8" rx="150.9" ry="150.9"/>
					
						<ellipse transform="matrix(0.7071 -0.7071 0.7071 0.7071 -415.3576 182.756)" class="st47" cx="12.9" cy="592.8" rx="150.6" ry="150.6"/>
					
						<ellipse transform="matrix(0.7071 -0.7071 0.7071 0.7071 -415.3576 182.756)" class="st48" cx="12.9" cy="592.8" rx="150.3" ry="150.3"/>
					
						<ellipse transform="matrix(0.7071 -0.7071 0.7071 0.7071 -415.3576 182.756)" class="st49" cx="12.9" cy="592.8" rx="150.1" ry="150.1"/>
					
						<ellipse transform="matrix(0.7071 -0.7071 0.7071 0.7071 -415.3576 182.756)" class="st50" cx="12.9" cy="592.8" rx="149.8" ry="149.8"/>
				</g>
				<circle class="st28" cx="9.9" cy="589.8" r="152.7"/>
			</g>
			<g>
				<g>
					
						<rect x="272.6" y="-594.9" transform="matrix(0.7071 -0.7071 0.7071 0.7071 309.3277 477.3592)" class="st29" width="916.5" height="920.4"/>
					
						<rect x="273.1" y="-594.4" transform="matrix(0.7071 -0.7071 0.7071 0.7071 309.4178 477.1417)" class="st30" width="915.2" height="918.9"/>
					
						<rect x="273.5" y="-593.8" transform="matrix(0.7071 -0.7071 0.7071 0.7071 309.5078 476.9243)" class="st31" width="913.9" height="917.4"/>
					
						<rect x="274" y="-593.3" transform="matrix(0.7071 -0.7071 0.7071 0.7071 309.5979 476.7068)" class="st32" width="912.5" height="915.9"/>
					
						<rect x="274.4" y="-592.7" transform="matrix(0.7071 -0.7071 0.7071 0.7071 309.6879 476.4893)" class="st33" width="911.2" height="914.3"/>
					
						<rect x="274.9" y="-592.2" transform="matrix(0.7071 -0.7071 0.7071 0.7071 309.778 476.2718)" class="st34" width="909.9" height="912.8"/>
					
						<rect x="275.3" y="-591.7" transform="matrix(0.7071 -0.7071 0.7071 0.7071 309.868 476.0543)" class="st35" width="908.5" height="911.3"/>
					
						<rect x="275.8" y="-591.1" transform="matrix(0.7071 -0.7071 0.7071 0.7071 309.9581 475.8368)" class="st36" width="907.2" height="909.8"/>
					
						<rect x="276.2" y="-590.6" transform="matrix(0.7071 -0.7071 0.7071 0.7071 310.0481 475.6194)" class="st37" width="905.9" height="908.3"/>
					
						<rect x="276.7" y="-590" transform="matrix(0.7071 -0.7071 0.7071 0.7071 310.1382 475.4019)" class="st38" width="904.5" height="906.7"/>
					
						<rect x="277.1" y="-589.5" transform="matrix(0.7071 -0.7071 0.7071 0.7071 310.2282 475.1844)" class="st39" width="903.2" height="905.2"/>
					
						<rect x="277.6" y="-589" transform="matrix(0.7071 -0.7071 0.7071 0.7071 310.3182 474.9669)" class="st40" width="901.9" height="903.7"/>
					
						<rect x="278" y="-588.4" transform="matrix(0.7071 -0.7071 0.7071 0.7071 310.4083 474.7494)" class="st41" width="900.5" height="902.2"/>
					
						<rect x="278.5" y="-587.9" transform="matrix(0.7071 -0.7071 0.7071 0.7071 310.4984 474.5319)" class="st42" width="899.2" height="900.7"/>
					
						<rect x="278.9" y="-587.3" transform="matrix(0.7071 -0.7071 0.7071 0.7071 310.5884 474.3145)" class="st43" width="897.9" height="899.1"/>
					
						<rect x="279.4" y="-586.8" transform="matrix(0.7071 -0.7071 0.7071 0.7071 310.6784 474.097)" class="st44" width="896.5" height="897.6"/>
					
						<rect x="279.8" y="-586.2" transform="matrix(0.7071 -0.7071 0.7071 0.7071 310.7685 473.8795)" class="st45" width="895.2" height="896.1"/>
					
						<rect x="280.3" y="-585.7" transform="matrix(0.7071 -0.7071 0.7071 0.7071 310.8585 473.662)" class="st46" width="893.9" height="894.6"/>
					
						<rect x="280.7" y="-585.2" transform="matrix(0.7071 -0.7071 0.7071 0.7071 310.9486 473.4445)" class="st47" width="892.5" height="893.1"/>
					
						<rect x="281.2" y="-584.6" transform="matrix(0.7071 -0.7071 0.7071 0.7071 311.0386 473.2271)" class="st48" width="891.2" height="891.6"/>
					
						<rect x="281.6" y="-584.1" transform="matrix(0.7071 -0.7071 0.7071 0.7071 311.1287 473.0096)" class="st49" width="889.9" height="890"/>
					
						<rect x="282.1" y="-583.5" transform="matrix(0.7071 -0.7071 0.7071 0.7071 311.2187 472.7921)" class="st50" width="888.5" height="888.5"/>
				</g>
				
					<rect x="274.3" y="-591.3" transform="matrix(0.7071 -0.7071 0.7071 0.7071 312.8531 468.8434)" class="st75" width="896.1" height="896.1"/>
			</g>
			<g>
				<g>
					
						<rect x="433.3" y="-667.7" transform="matrix(0.7071 -0.7071 0.7071 0.7071 429.0784 521.1733)" class="st29" width="820.7" height="820.7"/>
					
						<rect x="433.4" y="-667.6" transform="matrix(0.7071 -0.7071 0.7071 0.7071 429.0785 521.1734)" class="st30" width="820.4" height="820.4"/>
					
						<rect x="433.6" y="-667.4" transform="matrix(0.7071 -0.7071 0.7071 0.7071 429.0785 521.1734)" class="st31" width="820.1" height="820.1"/>
					
						<rect x="433.8" y="-667.2" transform="matrix(0.7071 -0.7071 0.7071 0.7071 429.0786 521.1734)" class="st32" width="819.8" height="819.8"/>
					
						<rect x="433.9" y="-667.1" transform="matrix(0.7071 -0.7071 0.7071 0.7071 429.0786 521.1735)" class="st33" width="819.4" height="819.4"/>
					
						<rect x="434.1" y="-666.9" transform="matrix(0.7071 -0.7071 0.7071 0.7071 429.0787 521.1735)" class="st34" width="819.1" height="819.1"/>
					
						<rect x="434.3" y="-666.7" transform="matrix(0.7071 -0.7071 0.7071 0.7071 429.0787 521.1735)" class="st35" width="818.8" height="818.8"/>
					
						<rect x="434.4" y="-666.6" transform="matrix(0.7071 -0.7071 0.7071 0.7071 429.0788 521.1735)" class="st36" width="818.4" height="818.4"/>
					
						<rect x="434.6" y="-666.4" transform="matrix(0.7071 -0.7071 0.7071 0.7071 429.0788 521.1735)" class="st37" width="818.1" height="818.1"/>
					
						<rect x="434.8" y="-666.2" transform="matrix(0.7071 -0.7071 0.7071 0.7071 429.0789 521.1735)" class="st38" width="817.8" height="817.8"/>
					
						<rect x="434.9" y="-666.1" transform="matrix(0.7071 -0.7071 0.7071 0.7071 429.0789 521.1736)" class="st39" width="817.4" height="817.4"/>
					
						<rect x="435.1" y="-665.9" transform="matrix(0.7071 -0.7071 0.7071 0.7071 429.079 521.1736)" class="st40" width="817.1" height="817.1"/>
					
						<rect x="435.3" y="-665.7" transform="matrix(0.7071 -0.7071 0.7071 0.7071 429.079 521.1736)" class="st41" width="816.8" height="816.8"/>
					
						<rect x="435.4" y="-665.6" transform="matrix(0.7071 -0.7071 0.7071 0.7071 429.0791 521.1736)" class="st42" width="816.4" height="816.4"/>
					
						<rect x="435.6" y="-665.4" transform="matrix(0.7071 -0.7071 0.7071 0.7071 429.0791 521.1736)" class="st43" width="816.1" height="816.1"/>
					
						<rect x="435.8" y="-665.2" transform="matrix(0.7071 -0.7071 0.7071 0.7071 429.0792 521.1736)" class="st44" width="815.8" height="815.8"/>
					
						<rect x="435.9" y="-665.1" transform="matrix(0.7071 -0.7071 0.7071 0.7071 429.0793 521.1737)" class="st45" width="815.4" height="815.4"/>
					
						<rect x="436.1" y="-664.9" transform="matrix(0.7071 -0.7071 0.7071 0.7071 429.0793 521.1737)" class="st46" width="815.1" height="815.1"/>
					
						<rect x="436.3" y="-664.7" transform="matrix(0.7071 -0.7071 0.7071 0.7071 429.0794 521.1737)" class="st47" width="814.8" height="814.8"/>
					
						<rect x="436.4" y="-664.6" transform="matrix(0.7071 -0.7071 0.7071 0.7071 429.0794 521.1738)" class="st48" width="814.4" height="814.4"/>
					
						<rect x="436.6" y="-664.4" transform="matrix(0.7071 -0.7071 0.7071 0.7071 429.0795 521.1738)" class="st49" width="814.1" height="814.1"/>
					
						<rect x="436.8" y="-664.2" transform="matrix(0.7071 -0.7071 0.7071 0.7071 429.0795 521.1738)" class="st50" width="813.8" height="813.8"/>
				</g>
				
					<rect x="429.7" y="-671.3" transform="matrix(0.7071 -0.7071 0.7071 0.7071 430.5762 517.5577)" class="st76" width="820.7" height="820.7"/>
			</g>
			<g>
				<g>
					
						<ellipse transform="matrix(0.232 -0.9727 0.9727 0.232 588.0864 1095.2826)" class="st29" cx="987.6" cy="175.2" rx="105.9" ry="105.9"/>
					
						<ellipse transform="matrix(0.2216 -0.9751 0.9751 0.2216 597.8778 1099.473)" class="st30" cx="987.6" cy="175.2" rx="105.6" ry="105.6"/>
					
						<ellipse transform="matrix(0.212 -0.9773 0.9773 0.212 606.988 1103.2622)" class="st31" cx="987.6" cy="175.2" rx="105.3" ry="105.3"/>
					
						<ellipse transform="matrix(0.2031 -0.9792 0.9792 0.2031 615.4783 1106.6995)" class="st32" cx="987.6" cy="175.2" rx="105.1" ry="105.1"/>
					
						<ellipse transform="matrix(0.1948 -0.9809 0.9809 0.1948 623.4041 1109.8271)" class="st33" cx="987.6" cy="175.2" rx="104.8" ry="104.8"/>
					
						<ellipse transform="matrix(0.187 -0.9824 0.9824 0.187 630.815 1112.6815)" class="st34" cx="987.6" cy="175.2" rx="104.5" ry="104.5"/>
					
						<ellipse transform="matrix(0.1797 -0.9837 0.9837 0.1797 637.7557 1115.2941)" class="st35" cx="987.6" cy="175.2" rx="104.3" ry="104.3"/>
					
						<ellipse transform="matrix(0.1729 -0.9849 0.9849 0.1729 644.2664 1117.6917)" class="st36" cx="987.6" cy="175.2" rx="104" ry="104"/>
					
						<ellipse transform="matrix(0.1665 -0.986 0.986 0.1665 650.3832 1119.8978)" class="st37" cx="987.6" cy="175.2" rx="103.7" ry="103.7"/>
					
						<ellipse transform="matrix(0.1605 -0.987 0.987 0.1605 656.1388 1121.9329)" class="st38" cx="987.6" cy="175.2" rx="103.4" ry="103.4"/>
					
						<ellipse transform="matrix(0.1549 -0.9879 0.9879 0.1549 661.5623 1123.8145)" class="st39" cx="987.6" cy="175.2" rx="103.2" ry="103.2"/>
					
						<ellipse transform="matrix(0.1495 -0.9888 0.9888 0.1495 666.6802 1125.5583)" class="st40" cx="987.6" cy="175.2" rx="102.9" ry="102.9"/>
					
						<ellipse transform="matrix(0.1445 -0.9895 0.9895 0.1445 671.5163 1127.178)" class="st41" cx="987.6" cy="175.2" rx="102.6" ry="102.6"/>
					
						<ellipse transform="matrix(0.1398 -0.9902 0.9902 0.1398 676.0923 1128.6854)" class="st42" cx="987.6" cy="175.2" rx="102.4" ry="102.4"/>
					
						<ellipse transform="matrix(0.1353 -0.9908 0.9908 0.1353 680.4277 1130.0911)" class="st43" cx="987.6" cy="175.2" rx="102.1" ry="102.1"/>
					
						<ellipse transform="matrix(0.131 -0.9914 0.9914 0.131 684.5402 1131.4044)" class="st44" cx="987.6" cy="175.2" rx="101.8" ry="101.8"/>
					
						<ellipse transform="matrix(0.1269 -0.9919 0.9919 0.1269 688.446 1132.6338)" class="st45" cx="987.6" cy="175.2" rx="101.6" ry="101.6"/>
					
						<ellipse transform="matrix(0.1231 -0.9924 0.9924 0.1231 692.1596 1133.7864)" class="st46" cx="987.6" cy="175.2" rx="101.3" ry="101.3"/>
					
						<ellipse transform="matrix(0.1194 -0.9928 0.9928 0.1194 695.6945 1134.8689)" class="st47" cx="987.6" cy="175.2" rx="101" ry="101"/>
					
						<ellipse transform="matrix(0.116 -0.9933 0.9933 0.116 699.0629 1135.8871)" class="st48" cx="987.6" cy="175.2" rx="100.8" ry="100.8"/>
					
						<ellipse transform="matrix(0.1126 -0.9936 0.9936 0.1126 702.2758 1136.8464)" class="st49" cx="987.6" cy="175.2" rx="100.5" ry="100.5"/>
					
						<ellipse transform="matrix(0.1095 -0.994 0.994 0.1095 705.3436 1137.7515)" class="st50" cx="987.6" cy="175.2" rx="100.2" ry="100.2"/>
				</g>
				<circle class="st77" cx="981.3" cy="168.9" r="103.7"/>
			</g>
		</g>
	</g>
</g>
</svg>
