<?xml version="1.0" encoding="utf-8"?>
<!-- Generator: Adobe Illustrator 21.0.0, SVG Export Plug-In . SVG Version: 6.00 Build 0)  -->
<svg version="1.1" id="Layer_1" xmlns="http://www.w3.org/2000/svg" xmlns:xlink="http://www.w3.org/1999/xlink" x="0px" y="0px"
	 viewBox="0 0 357 348" style="enable-background:new 0 0 357 348;" xml:space="preserve">
<style type="text/css">
	.st0{fill:#FFFFFF;}
	.st1{fill:none;stroke:#00AEEF;stroke-width:3;stroke-dasharray:271,273;}
	.st2{fill:none;stroke:#CCCCCC;stroke-width:3;stroke-linecap:square;stroke-dasharray:10,12;}
	.st3{fill:none;stroke:#CCCCCC;stroke-width:3;stroke-linecap:square;stroke-dasharray:11,13;}
	.st4{fill:none;stroke:#CCCCCC;stroke-width:3;stroke-linecap:square;stroke-dasharray:12,14;}
	.st5{fill:none;stroke:#CCCCCC;stroke-width:3;stroke-dasharray:978,980;}
	.st6{fill:none;stroke:#CCCCCC;stroke-width:3;stroke-dasharray:542,544;}
	.st7{fill:none;stroke:#00AEEF;stroke-width:3;stroke-linecap:square;stroke-dasharray:107,109;}
	.st8{filter:url(#Adobe_OpacityMaskFilter);}
	.st9{mask:url(#mask-4);fill:#FFFFFF;}
	.st10{fill:#FFFFFF;stroke:#00AEEF;stroke-width:3;stroke-dasharray:38,40;}
	.st11{fill:none;stroke:#00AEEF;stroke-width:3;stroke-linecap:square;stroke-dasharray:18,20;}
	.st12{fill:none;stroke:#00AEEF;stroke-width:3;stroke-linecap:square;stroke-dasharray:17,19;}
</style>
<g>
	<path id="path-1" class="st0" d="M142.6,129.6c0.9-13.2,5.5-23.5,13.8-30.7c8.3-7.3,19.8-10.9,34.7-10.9c9.4,0,16.8,1.2,22.3,3.7
		c5.5,2.5,9.7,5.6,12.5,9.5s4.6,8.1,5.4,12.7c0.7,4.6,1.1,9,1.1,13.2c0,5.3-1.1,9.4-3.2,12.3c-2.1,2.8-5.4,5-9.9,6.3
		c-4.5,1.4-10.2,2.3-17.2,2.8c-7,0.5-15.3,1-25.1,1.5c-5.9,0.4-11.8,1.1-17.6,2.3c-5.9,1.2-11.1,3.3-15.7,6.3
		c-4.6,3-8.3,7.2-11.2,12.5c-2.8,5.3-4.3,12.4-4.3,21.2c0,12.7,4.3,22.2,13,28.5c8.6,6.3,20.1,9.5,34.4,9.5c7.3,0,14.1-1,20.4-2.9
		c6.2-1.9,11.8-4.5,16.7-7.9c4.9-3.3,8.9-7.1,12.1-11.3c3.2-4.2,6.1-8.6,7.6-13.2v21.5c0,5.3,1.5,9,4.5,10.9c3,1.9,6.6,2.9,10.6,2.9
		h8.3 M232.5,195.2v-69.1"/>
</g>
<desc>Created with Sketch.</desc>
<g id="Brand_x2F_Identity" transform="translate(38.000000, 1238.000000)">
	<g id="Page-1">
		<path id="Fill-1" class="st1" d="M142.6-900c-46.1-1.1-87.3-20-119.6-53.3c-32.4-33.4-50.2-76.4-50.2-123.1"/>
		<g id="Group-11" transform="translate(29.000000, 0.000000)">
			<path id="Line" class="st2" d="M-25.5-1149.5h9.2"/>
			<path id="Line_1_" class="st2" d="M-6.5-1149.5h9.2"/>
			<path id="Line_2_" class="st2" d="M12.5-1149.5h9.2"/>
			<path id="Line_3_" class="st2" d="M30.5-1149.5h9.2"/>
			<path id="Line_4_" class="st3" d="M49.5-1149.5h10.2"/>
			<path id="Line_5_" class="st3" d="M68.5-1149.5h10.2"/>
			<path id="Line_6_" class="st3" d="M87.5-1149.5h10.2"/>
			<path id="Line_7_" class="st3" d="M106.5-1149.5h10.2"/>
			<path id="Line_8_" class="st3" d="M126.5-1149.5h10.2"/>
			<path id="Line_9_" class="st4" d="M143.5-1149.5h11.2"/>
			<path id="Line_10_" class="st4" d="M163.5-1149.5h11.2"/>
			<path id="Line_11_" class="st4" d="M181.5-1149.5h11.2"/>
			<path id="Line_12_" class="st4" d="M200.5-1149.5h11.2"/>
			<path id="Line_13_" class="st4" d="M219.5-1149.5h11.2"/>
			<path id="Line_14_" class="st4" d="M238.5-1149.5h11.2"/>
			<path id="Line_15_" class="st4" d="M257.5-1149.5h11.2"/>
			<path id="Line_16_" class="st4" d="M276.5-1149.5h11.2"/>
			<path id="Line_17_" class="st2" d="M-25-1007h9.2"/>
			<path id="Line_18_" class="st2" d="M-6-1007h9.2"/>
			<path id="Line_19_" class="st2" d="M13-1007h9.2"/>
			<path id="Line_20_" class="st2" d="M31-1007h9.2"/>
			<path id="Line_21_" class="st3" d="M50-1007h10.2"/>
			<path id="Line_22_" class="st3" d="M69-1007h10.2"/>
			<path id="Line_23_" class="st3" d="M88-1007h10.2"/>
			<path id="Line_24_" class="st3" d="M107-1007h10.2"/>
			<path id="Line_25_" class="st3" d="M127-1007h10.2"/>
			<path id="Line_26_" class="st4" d="M144-1007h11.2"/>
			<path id="Line_27_" class="st4" d="M164-1007h11.2"/>
			<path id="Line_28_" class="st4" d="M182-1007h11.2"/>
			<path id="Line_29_" class="st4" d="M201-1007h11.2"/>
			<path id="Line_30_" class="st4" d="M220-1007h11.2"/>
			<path id="Line_31_" class="st4" d="M239-1007h11.2"/>
			<path id="Line_32_" class="st4" d="M258-1007h11.2"/>
			<path id="Line_33_" class="st4" d="M277-1007h11.2"/>
			<path id="Oval-30" class="st5" d="M-36-1080.5c0-85.9,69.6-155.5,155.5-155.5S275-1166.4,275-1080.5l0,0
				c0,85.9-69.6,155.5-155.5,155.5S-36-994.6-36-1080.5L-36-1080.5"/>
		</g>
		<g id="Group-14" transform="translate(126.000000, 86.000000)">
			<g id="Clip-13">
				<path id="path-1_1_" class="st6" d="M-21.4-1194.4c0.9-13.2,5.5-23.5,13.8-30.7c8.3-7.3,19.8-10.9,34.7-10.9
					c9.4,0,16.8,1.2,22.3,3.7c5.5,2.5,9.7,5.6,12.5,9.5c2.8,3.9,4.6,8.1,5.4,12.7c0.7,4.6,1.1,9,1.1,13.2c0,5.3-1.1,9.4-3.2,12.3
					c-2.1,2.8-5.4,5-9.9,6.3c-4.5,1.4-10.2,2.3-17.2,2.8c-7,0.5-15.3,1-25.1,1.5c-5.9,0.4-11.8,1.1-17.6,2.3
					c-5.9,1.2-11.1,3.3-15.7,6.3c-4.6,3-8.3,7.2-11.2,12.5s-4.3,12.4-4.3,21.2c0,12.7,4.3,22.2,13,28.5c8.6,6.3,20.1,9.5,34.4,9.5
					c7.3,0,14.1-1,20.4-2.9c6.2-1.9,11.8-4.5,16.7-7.9c4.9-3.3,8.9-7.1,12.1-11.3c3.2-4.2,6.1-8.6,7.6-13.2v21.5
					c0,5.3,1.5,9,4.5,10.9c3,1.9,6.6,2.9,10.6,2.9h8.3 M68.5-1128.8v-69.1"/>
			</g>
		</g>
		<path id="Line_34_" class="st7" d="M150.5-1174.5l75,75"/>
		<g id="Group-19" transform="translate(218.000000, 93.000000)">
			<g id="Clip-18">
			</g>
			<defs>
				<filter id="Adobe_OpacityMaskFilter" filterUnits="userSpaceOnUse" x="-44.2" y="-1244.1" width="26.9" height="26.9">
					<feColorMatrix  type="matrix" values="1 0 0 0 0  0 1 0 0 0  0 0 1 0 0  0 0 0 1 0"/>
				</filter>
			</defs>
			<mask maskUnits="userSpaceOnUse" x="-44.2" y="-1244.1" width="26.9" height="26.9" id="mask-4">
				<g class="st8">
					<path id="path-3" class="st0" d="M-33.9-1233.9c-1.8,1.8-1.8,4.6,0,6.4c1.8,1.8,4.6,1.8,6.4,0c1.8-1.8,1.8-4.6,0-6.4
						c-0.9-0.9-2-1.3-3.2-1.3S-33.1-1234.7-33.9-1233.9L-33.9-1233.9z"/>
				</g>
			</mask>
			<path id="Fill-17" class="st9" d="M-30.8-1244.1l13.4,13.4l-13.4,13.4l-13.4-13.4L-30.8-1244.1z"/>
		</g>
		<path id="Oval-31" class="st10" d="M144-1175c0-3.3,2.7-6,6-6s6,2.7,6,6l0,0c0,3.3-2.7,6-6,6S144-1171.7,144-1175"/>
		<path id="Oval-31_1_" class="st10" d="M182-1137c0-3.3,2.7-6,6-6s6,2.7,6,6s-2.7,6-6,6S182-1133.7,182-1137"/>
		<path id="Oval-31_2_" class="st10" d="M217-1103c0-3.3,2.7-6,6-6c3.3,0,6,2.7,6,6s-2.7,6-6,6C219.7-1097,217-1099.7,217-1103"/>
		<g id="Group-35" transform="translate(0.000000, 158.000000)">
			<path id="Line_35_" class="st11" d="M-35.5-1234.5h17.3"/>
			<path id="Line_36_" class="st12" d="M143.5-1066.5v16.2"/>
		</g>
	</g>
</g>
</svg>
