<?xml version="1.0" encoding="utf-8"?>
<!-- Generator: Adobe Illustrator 21.1.0, SVG Export Plug-In . SVG Version: 6.00 Build 0)  -->
<svg version="1.1" id="Layer_1" xmlns="http://www.w3.org/2000/svg" xmlns:xlink="http://www.w3.org/1999/xlink" x="0px" y="0px"
	 viewBox="0 0 585 353" style="enable-background:new 0 0 585 353;" xml:space="preserve">
<style type="text/css">
	.st0{fill:#FFFFFF;}
	.st1{fill:#B3B3B3;}
	.st2{fill:#E6E6E6;}
	.st3{fill:#FFFFFF;stroke:#CCCCCC;stroke-miterlimit:10;}
</style>
<g>
	<g>
		<rect x="1.5" y="1.5" class="st0" width="582" height="350"/>
		<path class="st1" d="M583,2v349H2V2H583 M584,1h-1H2H1v1v349v1h1h581h1v-1V2V1L584,1z"/>
	</g>
	<rect x="2" y="2" class="st2" width="581" height="38"/>
	<g>
		<path d="M126.6,20.2c0.5,0.2,0.9,0.5,1.2,0.9s0.4,1,0.4,1.6c0,0.7-0.2,1.3-0.6,1.8s-0.9,0.9-1.5,1c-0.4,0.1-0.9,0.2-1.6,0.2h-4.6
			c-0.1,0-0.2,0-0.3-0.1s-0.1-0.2-0.1-0.3v-0.8c0-0.1,0-0.2,0.1-0.3s0.2-0.1,0.3-0.1h0.8v-7.5h-0.8c-0.1,0-0.2,0-0.3-0.1
			s-0.1-0.2-0.1-0.3v-0.8c0-0.1,0-0.2,0.1-0.3s0.2-0.1,0.3-0.1h4.4c0.4,0,0.7,0,1,0c0.3,0,0.6,0.1,0.9,0.2c0.5,0.2,0.9,0.5,1.2,0.9
			s0.4,0.9,0.4,1.5c0,0.5-0.1,0.9-0.3,1.3S127,20,126.6,20.2z M122.8,16.9v2.6h1.8c0.4,0,0.7-0.1,0.9-0.4s0.3-0.6,0.3-1
			c0-0.3-0.1-0.5-0.2-0.7s-0.2-0.4-0.4-0.4c-0.2-0.1-0.5-0.2-0.9-0.2H122.8z M125.5,24c0.2-0.1,0.4-0.3,0.6-0.5s0.2-0.6,0.2-0.9
			c0-0.5-0.1-0.8-0.4-1.1s-0.6-0.4-1.1-0.4h-2v3h1.9C125,24.1,125.3,24.1,125.5,24z"/>
	</g>
	<g>
		<path d="M151.6,16.4c-0.1,0-0.1,0-0.2-0.1s-0.1-0.1-0.1-0.2l0.1-0.6c0-0.1,0.1-0.1,0.1-0.2s0.1-0.1,0.2-0.1h3.5
			c0.1,0,0.2,0,0.2,0.1s0.1,0.1,0.1,0.2l-0.1,0.6c0,0.1,0,0.1-0.1,0.2s-0.1,0.1-0.2,0.1H154l-1.6,8.2h1c0.1,0,0.1,0,0.2,0.1
			s0.1,0.1,0.1,0.2l-0.1,0.6c0,0.1-0.1,0.1-0.1,0.2s-0.1,0.1-0.2,0.1h-3.5c-0.1,0-0.2,0-0.2-0.1s-0.1-0.1-0.1-0.2l0.1-0.6
			c0-0.1,0-0.1,0.1-0.2s0.1-0.1,0.2-0.1h1.1l1.6-8.2H151.6z"/>
	</g>
	<g>
		<path d="M177.4,17.5c-0.2,0.2-0.5,0.3-0.8,0.3s-0.6-0.1-0.8-0.3s-0.3-0.5-0.3-0.8s0.1-0.6,0.3-0.8s0.5-0.3,0.8-0.3
			s0.6,0.1,0.8,0.3s0.3,0.5,0.3,0.8S177.6,17.3,177.4,17.5z M175.8,19.7c-0.2,0.2-0.3,0.5-0.3,0.8s0.1,0.6,0.3,0.8s0.5,0.3,0.8,0.3
			s0.6-0.1,0.8-0.3s0.3-0.5,0.3-0.8s-0.1-0.6-0.3-0.8s-0.5-0.3-0.8-0.3S176,19.5,175.8,19.7z M175.8,23.5c-0.2,0.2-0.3,0.5-0.3,0.8
			s0.1,0.6,0.3,0.8s0.5,0.3,0.8,0.3s0.6-0.1,0.8-0.3s0.3-0.5,0.3-0.8s-0.1-0.6-0.3-0.8s-0.5-0.3-0.8-0.3S176,23.2,175.8,23.5z
			 M187.5,16.4c0-0.1,0-0.1-0.1-0.2s-0.1-0.1-0.2-0.1h-8.4c-0.1,0-0.1,0-0.2,0.1s-0.1,0.1-0.1,0.2v0.8c0,0.1,0,0.1,0.1,0.2
			s0.1,0.1,0.2,0.1h8.4c0.1,0,0.1,0,0.2-0.1s0.1-0.1,0.1-0.2V16.4z M187.5,20.1c0-0.1,0-0.1-0.1-0.2s-0.1-0.1-0.2-0.1h-8.4
			c-0.1,0-0.1,0-0.2,0.1s-0.1,0.1-0.1,0.2v0.8c0,0.1,0,0.1,0.1,0.2s0.1,0.1,0.2,0.1h8.4c0.1,0,0.1,0,0.2-0.1s0.1-0.1,0.1-0.2V20.1z
			 M187.5,23.9c0-0.1,0-0.1-0.1-0.2s-0.1-0.1-0.2-0.1h-8.4c-0.1,0-0.1,0-0.2,0.1s-0.1,0.1-0.1,0.2v0.8c0,0.1,0,0.1,0.1,0.2
			s0.1,0.1,0.2,0.1h8.4c0.1,0,0.1,0,0.2-0.1s0.1-0.1,0.1-0.2V23.9z"/>
	</g>
	<g>
		<path d="M204.5,21.7L204.5,21.7c0-0.4,0.1-0.7,0.3-0.9c0.1-0.1,0.3-0.3,0.6-0.5c0.1-0.1,0.2-0.1,0.3-0.2s0.1-0.1,0.1-0.1
			c0-0.1-0.1-0.2-0.2-0.2c-0.1,0-0.2,0-0.2,0.1c-0.1,0.1-0.2,0.1-0.4,0l-0.2-0.2c-0.1-0.1-0.2-0.2-0.1-0.4c0.2-0.3,0.5-0.4,0.9-0.4
			c0.3,0,0.5,0.1,0.7,0.2c0.2,0.2,0.4,0.4,0.4,0.7c0,0.2-0.1,0.5-0.3,0.7c-0.1,0.1-0.3,0.2-0.5,0.4c-0.2,0.1-0.3,0.2-0.3,0.2h0.9
			c0.2,0,0.3,0.1,0.3,0.3v0.2c0,0.2-0.1,0.3-0.3,0.3h-1.6c-0.1,0-0.1,0-0.2-0.1S204.5,21.8,204.5,21.7z M204.6,18v-0.2
			c0-0.2,0.1-0.3,0.3-0.3h0.4v-0.9l0-0.2l-0.1,0.1c0,0.1-0.1,0.1-0.2,0.1s-0.1,0-0.2-0.1l-0.1-0.1c-0.1-0.1-0.1-0.2,0-0.4l0.5-0.5
			c0.1-0.1,0.2-0.1,0.4-0.1h0.3c0.2,0,0.3,0.1,0.3,0.3v2h0.4c0.2,0,0.3,0.1,0.3,0.3V18c0,0.2-0.1,0.3-0.3,0.3h-1.6
			C204.7,18.2,204.6,18.2,204.6,18z M204.7,25.5c-0.1-0.1-0.1-0.2,0-0.4l0.1-0.2c0.1-0.1,0.2-0.2,0.4-0.1c0.1,0,0.2,0.1,0.3,0.1
			c0.2,0,0.4-0.1,0.4-0.2s-0.1-0.2-0.4-0.2h-0.1c-0.1,0-0.2-0.1-0.3-0.2l0,0c-0.1-0.1,0-0.2,0-0.4l0.1-0.2l0.3-0.3l-0.3,0h-0.3
			c-0.2,0-0.3-0.1-0.3-0.3V23c0-0.2,0.1-0.3,0.3-0.3h1.4c0.2,0,0.3,0.1,0.3,0.3v0.1c0,0.1,0,0.2-0.1,0.3l-0.4,0.5
			c0.2,0.1,0.4,0.2,0.5,0.3s0.2,0.3,0.2,0.5c0,0.3-0.1,0.5-0.3,0.7c-0.2,0.2-0.5,0.3-0.9,0.3C205.2,25.8,204.9,25.7,204.7,25.5z
			 M216.2,17.4c0.1,0,0.1,0,0.2-0.1s0.1-0.1,0.1-0.2v-0.8c0-0.1,0-0.1-0.1-0.2s-0.1-0.1-0.2-0.1h-8.4c-0.1,0-0.1,0-0.2,0.1
			s-0.1,0.1-0.1,0.2v0.8c0,0.1,0,0.1,0.1,0.2s0.1,0.1,0.2,0.1H216.2z M216.5,20.9c0,0.1,0,0.1-0.1,0.2s-0.1,0.1-0.2,0.1h-8.4
			c-0.1,0-0.1,0-0.2-0.1s-0.1-0.1-0.1-0.2v-0.8c0-0.1,0-0.1,0.1-0.2s0.1-0.1,0.2-0.1h8.4c0.1,0,0.1,0,0.2,0.1s0.1,0.1,0.1,0.2V20.9z
			 M216.5,24.6c0,0.1,0,0.1-0.1,0.2s-0.1,0.1-0.2,0.1h-8.4c-0.1,0-0.1,0-0.2-0.1s-0.1-0.1-0.1-0.2v-0.8c0-0.1,0-0.1,0.1-0.2
			s0.1-0.1,0.2-0.1h8.4c0.1,0,0.1,0,0.2,0.1s0.1,0.1,0.1,0.2V24.6z"/>
	</g>
	<g>
		<path d="M236.6,20.5c0.3,0,0.6,0.1,0.8,0.3s0.3,0.5,0.3,0.8v3c0,0.3-0.1,0.6-0.3,0.8s-0.5,0.3-0.8,0.3h-3c-0.3,0-0.6-0.1-0.8-0.3
			s-0.3-0.5-0.3-0.8V19c0-0.7,0.2-1.3,0.5-1.9s0.8-1,1.4-1.4s1.2-0.5,1.9-0.5h0.2c0.2,0,0.3,0.1,0.4,0.2s0.2,0.2,0.2,0.4v1.1
			c0,0.2-0.1,0.3-0.2,0.4s-0.2,0.2-0.4,0.2h-0.2c-0.4,0-0.8,0.1-1.1,0.4s-0.4,0.6-0.4,1.1v1.5H236.6z M243.4,20.5
			c0.3,0,0.6,0.1,0.8,0.3s0.3,0.5,0.3,0.8v3c0,0.3-0.1,0.6-0.3,0.8s-0.5,0.3-0.8,0.3h-3c-0.3,0-0.6-0.1-0.8-0.3s-0.3-0.5-0.3-0.8V19
			c0-0.7,0.2-1.3,0.5-1.9s0.8-1,1.4-1.4s1.2-0.5,1.9-0.5h0.2c0.2,0,0.3,0.1,0.4,0.2s0.2,0.2,0.2,0.4v1.1c0,0.2-0.1,0.3-0.2,0.4
			s-0.2,0.2-0.4,0.2H243c-0.4,0-0.8,0.1-1.1,0.4s-0.4,0.6-0.4,1.1v1.5H243.4z"/>
	</g>
	<g>
		<path d="M267.2,16.4c0,0.1,0,0.1-0.1,0.2s-0.1,0.1-0.2,0.1h-6.2c-0.1,0-0.1,0-0.2-0.1s-0.1-0.1-0.1-0.2v-0.8c0-0.1,0-0.1,0.1-0.2
			s0.1-0.1,0.2-0.1h6.2c0.1,0,0.1,0,0.2,0.1s0.1,0.1,0.1,0.2V16.4z M270.7,19.7c0.1,0,0.1,0,0.2-0.1s0.1-0.1,0.1-0.2v-0.8
			c0-0.1,0-0.1-0.1-0.2s-0.1-0.1-0.2-0.1h-9.9c-0.1,0-0.1,0-0.2,0.1s-0.1,0.1-0.1,0.2v0.8c0,0.1,0,0.1,0.1,0.2s0.1,0.1,0.2,0.1
			H270.7z M260.8,21.3c-0.1,0-0.1,0-0.2,0.1s-0.1,0.1-0.1,0.2v0.8c0,0.1,0,0.1,0.1,0.2s0.1,0.1,0.2,0.1h6.2c0.1,0,0.1,0,0.2-0.1
			s0.1-0.1,0.1-0.2v-0.8c0-0.1,0-0.1-0.1-0.2s-0.1-0.1-0.2-0.1H260.8z M270.7,25.7c0.1,0,0.1,0,0.2-0.1s0.1-0.1,0.1-0.2v-0.8
			c0-0.1,0-0.1-0.1-0.2s-0.1-0.1-0.2-0.1h-9.9c-0.1,0-0.1,0-0.2,0.1s-0.1,0.1-0.1,0.2v0.8c0,0.1,0,0.1,0.1,0.2s0.1,0.1,0.2,0.1
			H270.7z"/>
	</g>
	<g>
		<path d="M290.8,19.7c-0.1,0-0.1,0-0.2-0.1s-0.1-0.1-0.1-0.2v-0.8c0-0.1,0-0.1,0.1-0.2s0.1-0.1,0.2-0.1h9.9c0.1,0,0.1,0,0.2,0.1
			s0.1,0.1,0.1,0.2v0.8c0,0.1,0,0.1-0.1,0.2s-0.1,0.1-0.2,0.1H290.8z M290.8,25.7c-0.1,0-0.1,0-0.2-0.1s-0.1-0.1-0.1-0.2v-0.8
			c0-0.1,0-0.1,0.1-0.2s0.1-0.1,0.2-0.1h9.9c0.1,0,0.1,0,0.2,0.1s0.1,0.1,0.1,0.2v0.8c0,0.1,0,0.1-0.1,0.2s-0.1,0.1-0.2,0.1H290.8z
			 M298.8,15.6c0-0.1,0-0.1-0.1-0.2s-0.1-0.1-0.2-0.1H293c-0.1,0-0.1,0-0.2,0.1s-0.1,0.1-0.1,0.2v0.8c0,0.1,0,0.1,0.1,0.2
			s0.1,0.1,0.2,0.1h5.4c0.1,0,0.1,0,0.2-0.1s0.1-0.1,0.1-0.2V15.6z M298.5,21.3c0.1,0,0.1,0,0.2,0.1s0.1,0.1,0.1,0.2v0.8
			c0,0.1,0,0.1-0.1,0.2s-0.1,0.1-0.2,0.1H293c-0.1,0-0.1,0-0.2-0.1s-0.1-0.1-0.1-0.2v-0.8c0-0.1,0-0.1,0.1-0.2s0.1-0.1,0.2-0.1
			H298.5z"/>
	</g>
	<g>
		<path d="M319.8,19.7c-0.1,0-0.1,0-0.2-0.1s-0.1-0.1-0.1-0.2v-0.8c0-0.1,0-0.1,0.1-0.2s0.1-0.1,0.2-0.1h9.9c0.1,0,0.1,0,0.2,0.1
			s0.1,0.1,0.1,0.2v0.8c0,0.1,0,0.1-0.1,0.2s-0.1,0.1-0.2,0.1H319.8z M319.8,25.7c-0.1,0-0.1,0-0.2-0.1s-0.1-0.1-0.1-0.2v-0.8
			c0-0.1,0-0.1,0.1-0.2s0.1-0.1,0.2-0.1h9.9c0.1,0,0.1,0,0.2,0.1s0.1,0.1,0.1,0.2v0.8c0,0.1,0,0.1-0.1,0.2s-0.1,0.1-0.2,0.1H319.8z
			 M323.2,16.4c0,0.1,0,0.1,0.1,0.2s0.1,0.1,0.2,0.1h6.2c0.1,0,0.1,0,0.2-0.1s0.1-0.1,0.1-0.2v-0.8c0-0.1,0-0.1-0.1-0.2
			s-0.1-0.1-0.2-0.1h-6.2c-0.1,0-0.1,0-0.2,0.1s-0.1,0.1-0.1,0.2V16.4z M323.5,22.7c-0.1,0-0.1,0-0.2-0.1s-0.1-0.1-0.1-0.2v-0.8
			c0-0.1,0-0.1,0.1-0.2s0.1-0.1,0.2-0.1h6.2c0.1,0,0.1,0,0.2,0.1s0.1,0.1,0.1,0.2v0.8c0,0.1,0,0.1-0.1,0.2s-0.1,0.1-0.2,0.1H323.5z"
			/>
	</g>
	<g>
		<path d="M354.7,20.5c0.2,0.5,0.2,1.1,0.1,1.6s-0.3,1-0.7,1.4c-0.1,0.1-0.4,0.4-1,1l-1,1c-0.4,0.4-0.9,0.7-1.5,0.9s-1.1,0.1-1.7,0
			s-1.1-0.4-1.5-0.9s-0.7-0.9-0.9-1.5s-0.1-1.1,0-1.7s0.4-1.1,0.9-1.5l1.5-1.5c0.1-0.1,0.2-0.1,0.3-0.1s0.2,0.1,0.2,0.3
			c0,0.3,0,0.6,0.1,0.9c0,0.1,0,0.2-0.1,0.3l-1.1,1.1c-0.4,0.4-0.6,0.8-0.6,1.4s0.2,1,0.6,1.4s0.8,0.6,1.4,0.6s1-0.2,1.4-0.6
			l1.8-1.8c0.4-0.4,0.6-0.8,0.6-1.4s-0.2-1-0.6-1.4c-0.2-0.2-0.3-0.3-0.5-0.4c-0.1-0.1-0.2-0.2-0.2-0.3c0-0.3,0.1-0.5,0.4-0.7
			l0.1-0.1c0.1-0.1,0.2-0.1,0.3,0c0.3,0.2,0.6,0.4,0.8,0.6C354.2,19.5,354.5,20,354.7,20.5z M356.1,14.6c-0.6-0.1-1.1-0.1-1.7,0
			s-1.1,0.4-1.5,0.9l-1,1c-0.6,0.6-0.9,0.9-1,1c-0.3,0.4-0.6,0.9-0.7,1.4s-0.1,1.1,0.1,1.6s0.4,1,0.8,1.4c0.2,0.2,0.5,0.5,0.8,0.6
			c0.1,0.1,0.2,0,0.3,0l0.1-0.1c0.2-0.2,0.3-0.4,0.4-0.7c0-0.1,0-0.2-0.2-0.3c-0.2-0.1-0.4-0.2-0.5-0.4c-0.4-0.4-0.6-0.9-0.6-1.4
			s0.2-1,0.6-1.4l1.8-1.8c0.4-0.4,0.8-0.6,1.4-0.6s1,0.2,1.4,0.6s0.6,0.8,0.6,1.4s-0.2,1-0.6,1.4l-1.1,1.1c-0.1,0.1-0.1,0.2-0.1,0.3
			c0.1,0.3,0.1,0.6,0.1,0.9c0,0.1,0.1,0.2,0.2,0.3s0.2,0,0.3-0.1l1.5-1.5c0.4-0.4,0.7-0.9,0.9-1.5s0.1-1.1,0-1.7s-0.4-1.1-0.9-1.5
			S356.6,14.8,356.1,14.6z"/>
	</g>
	<g>
		<path d="M375.5,16.4c0-0.3,0.1-0.6,0.3-0.8s0.5-0.3,0.8-0.3h9.8c0.3,0,0.6,0.1,0.8,0.3s0.3,0.5,0.3,0.8v8.2c0,0.3-0.1,0.6-0.3,0.8
			s-0.5,0.3-0.8,0.3h-9.8c-0.3,0-0.6-0.1-0.8-0.3s-0.3-0.5-0.3-0.8V16.4z M379.2,16.2h-2.5c-0.1,0-0.1,0-0.2,0.1s-0.1,0.1-0.1,0.2v2
			h2.7V16.2z M376.4,19.4v2.2h2.7v-2.2H376.4z M376.4,22.6v2c0,0.1,0,0.1,0.1,0.2s0.1,0.1,0.2,0.1h2.5v-2.2H376.4z M380.1,18.4h6.4
			v-2c0-0.1,0-0.1-0.1-0.2s-0.1-0.1-0.2-0.1h-6.2V18.4z M386.6,21.6v-2.2h-6.4v2.2H386.6z M386.6,22.6h-6.4v2.2h6.2
			c0.1,0,0.1,0,0.2-0.1s0.1-0.1,0.1-0.2V22.6z"/>
	</g>
	<g>
		<path d="M568.3,23.3l1.3-1.2c0.1-0.1,0.2-0.1,0.3-0.1s0.2,0.1,0.2,0.3v3.2c0,0.1,0,0.1-0.1,0.2s-0.1,0.1-0.2,0.1h-3.2
			c-0.1,0-0.2-0.1-0.3-0.2s0-0.2,0-0.3l1.3-1.3l-2.8-2.9l-2.8,2.9l1.2,1.2c0.1,0.1,0.1,0.2,0.1,0.3s-0.1,0.2-0.3,0.2h-3.2
			c-0.1,0-0.1,0-0.2-0.1s-0.1-0.1-0.1-0.2v-3.2c0-0.1,0.1-0.2,0.2-0.3s0.2,0,0.3,0.1l1.3,1.2l2.9-2.8l-2.9-2.8l-1.2,1.2
			c-0.1,0.1-0.2,0.1-0.3,0.1s-0.2-0.1-0.2-0.3v-3.2c0-0.1,0-0.1,0.1-0.2s0.1-0.1,0.2-0.1h3.2c0.1,0,0.2,0.1,0.3,0.2s0,0.2,0,0.3
			l-1.3,1.3l2.8,2.9l2.8-2.9l-1.2-1.3c-0.1-0.1-0.1-0.2-0.1-0.3s0.1-0.2,0.3-0.2h3.2c0.1,0,0.1,0,0.2,0.1s0.1,0.1,0.1,0.2v3.2
			c0,0.1-0.1,0.2-0.2,0.3s-0.2,0-0.3,0l-1.3-1.3l-2.9,2.8L568.3,23.3z"/>
	</g>
	<rect x="6.5" y="8.5" class="st3" width="101" height="24"/>
	<g>
		<path d="M21.9,18.4c0,0.4-0.1,0.7-0.2,1.1s-0.3,0.6-0.6,0.9c-0.3,0.3-0.7,0.5-1.1,0.7s-0.9,0.2-1.6,0.2h-1.2v3.3h-1.2v-8.7h2.4
			c0.5,0,1,0,1.3,0.1s0.7,0.2,1,0.4c0.3,0.2,0.6,0.5,0.8,0.8S21.9,17.9,21.9,18.4z M20.7,18.4c0-0.3-0.1-0.6-0.2-0.8
			s-0.3-0.4-0.5-0.5c-0.2-0.1-0.4-0.2-0.6-0.3s-0.5-0.1-0.9-0.1h-1.1v3.5h1c0.5,0,0.8,0,1.1-0.1s0.5-0.2,0.7-0.4
			c0.2-0.2,0.3-0.4,0.4-0.6S20.7,18.7,20.7,18.4z"/>
		<path d="M28.1,24.5H27v-0.7c-0.1,0.1-0.2,0.2-0.4,0.3s-0.3,0.2-0.5,0.3c-0.2,0.1-0.4,0.2-0.6,0.2s-0.5,0.1-0.8,0.1
			c-0.6,0-1.1-0.2-1.5-0.6s-0.6-0.9-0.6-1.5c0-0.5,0.1-0.9,0.3-1.2s0.5-0.5,0.9-0.7c0.4-0.2,0.9-0.3,1.4-0.4s1.2-0.1,1.8-0.1V20
			c0-0.2,0-0.5-0.1-0.6s-0.2-0.3-0.4-0.4c-0.2-0.1-0.3-0.2-0.6-0.2s-0.4,0-0.7,0c-0.3,0-0.6,0-1,0.1s-0.7,0.2-1.1,0.3h-0.1v-1.1
			c0.2-0.1,0.5-0.1,0.9-0.2s0.8-0.1,1.2-0.1c0.5,0,0.9,0,1.2,0.1s0.6,0.2,0.9,0.4c0.2,0.2,0.4,0.4,0.6,0.7s0.2,0.6,0.2,1.1V24.5z
			 M27,22.9v-1.8c-0.3,0-0.7,0-1.2,0.1s-0.8,0.1-1.1,0.2c-0.3,0.1-0.6,0.2-0.8,0.4s-0.3,0.5-0.3,0.8c0,0.4,0.1,0.7,0.3,0.8
			s0.6,0.3,1,0.3c0.4,0,0.7-0.1,1.1-0.2S26.7,23.1,27,22.9z"/>
		<path d="M34.3,19.2L34.3,19.2c-0.2,0-0.4-0.1-0.5-0.1s-0.3,0-0.5,0c-0.3,0-0.7,0.1-1,0.2s-0.6,0.3-0.9,0.6v4.6h-1.1V18h1.1v1
			c0.4-0.4,0.8-0.6,1.2-0.7s0.7-0.2,1-0.2c0.2,0,0.3,0,0.4,0s0.2,0,0.4,0.1V19.2z"/>
		<path d="M40.2,24.5h-1.1v-0.7c-0.1,0.1-0.2,0.2-0.4,0.3s-0.3,0.2-0.5,0.3c-0.2,0.1-0.4,0.2-0.6,0.2s-0.5,0.1-0.8,0.1
			c-0.6,0-1.1-0.2-1.5-0.6s-0.6-0.9-0.6-1.5c0-0.5,0.1-0.9,0.3-1.2s0.5-0.5,0.9-0.7c0.4-0.2,0.9-0.3,1.4-0.4s1.2-0.1,1.8-0.1V20
			c0-0.2,0-0.5-0.1-0.6s-0.2-0.3-0.4-0.4c-0.2-0.1-0.3-0.2-0.6-0.2s-0.4,0-0.7,0c-0.3,0-0.6,0-1,0.1s-0.7,0.2-1.1,0.3h-0.1v-1.1
			c0.2-0.1,0.5-0.1,0.9-0.2s0.8-0.1,1.2-0.1c0.5,0,0.9,0,1.2,0.1s0.6,0.2,0.9,0.4c0.2,0.2,0.4,0.4,0.6,0.7s0.2,0.6,0.2,1.1V24.5z
			 M39.1,22.9v-1.8c-0.3,0-0.7,0-1.2,0.1s-0.8,0.1-1.1,0.2c-0.3,0.1-0.6,0.2-0.8,0.4s-0.3,0.5-0.3,0.8c0,0.4,0.1,0.7,0.3,0.8
			s0.6,0.3,1,0.3c0.4,0,0.7-0.1,1.1-0.2S38.9,23.1,39.1,22.9z"/>
		<path d="M47.7,23.8c0,1.1-0.3,1.9-0.8,2.4S45.6,27,44.6,27c-0.3,0-0.7,0-1-0.1s-0.7-0.1-1-0.2v-1.1h0.1c0.2,0.1,0.5,0.2,0.9,0.3
			s0.8,0.2,1.2,0.2c0.4,0,0.7,0,0.9-0.1s0.4-0.2,0.6-0.4c0.1-0.2,0.2-0.3,0.3-0.6s0.1-0.5,0.1-0.7v-0.6c-0.3,0.3-0.6,0.5-1,0.6
			s-0.7,0.2-1.2,0.2c-0.8,0-1.4-0.3-1.9-0.8s-0.7-1.4-0.7-2.4c0-0.6,0.1-1,0.2-1.5s0.4-0.8,0.6-1.1c0.3-0.3,0.6-0.5,0.9-0.6
			s0.7-0.2,1.1-0.2c0.4,0,0.7,0,1,0.1s0.5,0.2,0.8,0.3l0.1-0.3h1V23.8z M46.6,22.7v-3.6c-0.3-0.1-0.6-0.2-0.8-0.3s-0.5-0.1-0.8-0.1
			c-0.6,0-1.1,0.2-1.4,0.6s-0.5,1-0.5,1.8c0,0.7,0.1,1.3,0.4,1.7s0.7,0.6,1.3,0.6c0.3,0,0.6-0.1,1-0.2S46.3,22.9,46.6,22.7z"/>
		<path d="M53.9,19.2L53.9,19.2c-0.2,0-0.4-0.1-0.5-0.1s-0.3,0-0.5,0c-0.3,0-0.7,0.1-1,0.2s-0.6,0.3-0.9,0.6v4.6h-1.1V18h1.1v1
			c0.4-0.4,0.8-0.6,1.2-0.7s0.7-0.2,1-0.2c0.2,0,0.3,0,0.4,0s0.2,0,0.4,0.1V19.2z"/>
		<path d="M59.8,24.5h-1.1v-0.7c-0.1,0.1-0.2,0.2-0.4,0.3s-0.3,0.2-0.5,0.3c-0.2,0.1-0.4,0.2-0.6,0.2s-0.5,0.1-0.8,0.1
			c-0.6,0-1.1-0.2-1.5-0.6s-0.6-0.9-0.6-1.5c0-0.5,0.1-0.9,0.3-1.2s0.5-0.5,0.9-0.7c0.4-0.2,0.9-0.3,1.4-0.4s1.2-0.1,1.8-0.1V20
			c0-0.2,0-0.5-0.1-0.6s-0.2-0.3-0.4-0.4c-0.2-0.1-0.3-0.2-0.6-0.2s-0.4,0-0.7,0c-0.3,0-0.6,0-1,0.1s-0.7,0.2-1.1,0.3h-0.1v-1.1
			c0.2-0.1,0.5-0.1,0.9-0.2s0.8-0.1,1.2-0.1c0.5,0,0.9,0,1.2,0.1s0.6,0.2,0.9,0.4c0.2,0.2,0.4,0.4,0.6,0.7s0.2,0.6,0.2,1.1V24.5z
			 M58.7,22.9v-1.8c-0.3,0-0.7,0-1.2,0.1s-0.8,0.1-1.1,0.2c-0.3,0.1-0.6,0.2-0.8,0.4s-0.3,0.5-0.3,0.8c0,0.4,0.1,0.7,0.3,0.8
			s0.6,0.3,1,0.3c0.4,0,0.7-0.1,1.1-0.2S58.5,23.1,58.7,22.9z"/>
		<path d="M67.7,21.1c0,0.5-0.1,1-0.2,1.5s-0.4,0.8-0.6,1.1c-0.3,0.3-0.6,0.5-0.9,0.7s-0.7,0.2-1.1,0.2c-0.3,0-0.6,0-0.9-0.1
			s-0.6-0.2-0.8-0.3v2.7h-1.1v-9H63v0.7c0.3-0.2,0.6-0.5,1-0.6s0.8-0.2,1.2-0.2c0.8,0,1.4,0.3,1.8,0.9S67.7,20.1,67.7,21.1z
			 M66.6,21.2c0-0.8-0.1-1.4-0.4-1.8s-0.7-0.6-1.2-0.6c-0.3,0-0.6,0.1-1,0.2s-0.6,0.3-0.9,0.5v3.7c0.3,0.1,0.6,0.2,0.8,0.3
			s0.5,0.1,0.8,0.1c0.6,0,1.1-0.2,1.4-0.6S66.6,22,66.6,21.2z"/>
		<path d="M74.9,24.5h-1.1v-3.7c0-0.3,0-0.6-0.1-0.8s-0.1-0.5-0.2-0.6c-0.1-0.2-0.2-0.3-0.4-0.4s-0.4-0.1-0.7-0.1
			c-0.3,0-0.6,0.1-0.9,0.2s-0.6,0.3-0.9,0.6v4.9h-1.1v-9.1h1.1v3.3c0.3-0.3,0.7-0.5,1.1-0.7s0.7-0.2,1.1-0.2c0.7,0,1.2,0.2,1.6,0.6
			s0.6,1,0.6,1.8V24.5z"/>
	</g>
	<g>
		<path d="M101,18.2c0.2,0,0.3,0.1,0.4,0.2s0.2,0.2,0.2,0.4s-0.1,0.3-0.2,0.4L98.6,22c-0.1,0.1-0.2,0.2-0.4,0.2S98,22.1,97.9,22
			l-2.8-2.8c-0.1-0.1-0.2-0.2-0.2-0.4s0.1-0.3,0.2-0.4s0.2-0.2,0.4-0.2H101z"/>
	</g>
	<g>
		<path class="st1" d="M583,2v349H2V2H583 M584,1h-1H2H1v1v349v1h1h581h1v-1V2V1L584,1z"/>
	</g>
</g>
</svg>
