<?xml version="1.0" encoding="utf-8"?>
<!-- Generator: Adobe Illustrator 21.0.0, SVG Export Plug-In . SVG Version: 6.00 Build 0)  -->
<svg version="1.1" id="Layer_1" xmlns="http://www.w3.org/2000/svg" xmlns:xlink="http://www.w3.org/1999/xlink" x="0px" y="0px"
	 viewBox="0 0 299 287" style="enable-background:new 0 0 299 287;" xml:space="preserve">
<style type="text/css">
	.st0{fill:none;stroke:#00AEEF;stroke-width:3;stroke-linecap:square;stroke-dasharray:61,63;}
	.st1{fill:none;stroke:#CCCCCC;stroke-width:3;stroke-linecap:square;stroke-dasharray:61,63;}
	.st2{fill:none;stroke:#CCCCCC;stroke-width:3;stroke-linecap:square;stroke-dasharray:141,143;}
	.st3{fill:none;stroke:#CCCCCC;stroke-width:3;stroke-linecap:square;stroke-dasharray:92,94;}
	.st4{fill:none;stroke:#CCCCCC;stroke-width:3;stroke-linecap:square;stroke-dasharray:76,78;}
	.st5{fill:none;stroke:#CCCCCC;stroke-width:3;stroke-linecap:square;stroke-dasharray:58,60;}
	.st6{fill:none;stroke:#CCCCCC;stroke-width:3;stroke-linecap:square;stroke-dasharray:166,168;}
	.st7{fill:none;stroke:#CCCCCC;stroke-width:3;stroke-linecap:square;stroke-dasharray:164,166;}
	.st8{fill:none;stroke:#CCCCCC;stroke-width:3;stroke-linecap:square;stroke-dasharray:197,199;}
	.st9{fill:none;stroke:#CCCCCC;stroke-width:3;stroke-linecap:square;stroke-dasharray:245,247;}
	.st10{fill:none;stroke:#CCCCCC;stroke-width:3;stroke-linecap:square;stroke-dasharray:194,196;}
	.st11{fill:#FFFFFF;}
	.st12{fill:none;stroke:#00AEEF;stroke-width:5;stroke-linecap:round;stroke-dasharray:0,2;}
	.st13{fill:none;stroke:#CCCCCC;stroke-width:3;stroke-linecap:round;stroke-dasharray:8,10;}
	.st14{fill:none;stroke:#CCCCCC;stroke-width:3;stroke-dasharray:182,184;}
	.st15{fill:none;stroke:#CCCCCC;stroke-width:3;stroke-linecap:square;stroke-dasharray:23,25;}
	.st16{fill:none;stroke:#CCCCCC;stroke-width:3;stroke-linecap:square;stroke-dasharray:21,23;}
	.st17{fill:none;stroke:#CCCCCC;stroke-width:3;stroke-linecap:square;stroke-dasharray:31,33;}
	.st18{fill:none;stroke:#CCCCCC;stroke-width:3;stroke-linecap:square;stroke-dasharray:34,36;}
	.st19{fill:none;stroke:#CCCCCC;stroke-width:3;stroke-linecap:square;stroke-dasharray:35,37;}
	.st20{fill:none;stroke:#CCCCCC;stroke-width:3;stroke-linecap:square;stroke-dasharray:27,29;}
	.st21{fill:none;stroke:#CCCCCC;stroke-width:3;stroke-linecap:square;stroke-dasharray:18,20;}
	.st22{fill:none;stroke:#00AEEF;stroke-width:4;stroke-dasharray:355,357;}
</style>
<title>Group 21</title>
<desc>Created with Sketch.</desc>
<g id="Homepage">
	<g id="Service" transform="translate(-187.000000, -4754.000000)">
		<g id="Group-21">
			<g id="Group-20">
				<g id="Group-18">
					<path id="Line" class="st0" d="M278.7,4956.1h-60.3"/>
					<path id="Line_1_" class="st0" d="M278.7,4970.8h-60.3"/>
					<path id="Line_2_" class="st1" d="M278.7,4985.4h-60.3"/>
					<path id="Line_3_" class="st1" d="M278.7,5000.8h-60.3"/>
					<path id="Line_4_" class="st2" d="M215.7,4844.3h140.7"/>
					<path id="Line_5_" class="st2" d="M216.1,4935.7h140.7"/>
					<path id="Line_6_" class="st3" d="M215.7,4844.3v91.2"/>
					<path id="Line_7_" class="st3" d="M356.3,4844.3v91.2"/>
					<path id="Line_8_" class="st4" d="M299.1,4952.2v75.9"/>
					<path id="Line_9_" class="st4" d="M356.3,4952.2v75.9"/>
					<path id="Line_10_" class="st5" d="M299.1,4952.2h57.4"/>
					<path id="Line_11_" class="st6" d="M216.1,4843.9l138.8,90.1"/>
					<path id="Line_12_" class="st7" d="M355.2,4844.7l-136.8,89.4"/>
					<path id="Line_13_" class="st6" d="M198.7,4824.2h165.9"/>
					<path id="Line_14_" class="st8" d="M189.4,4804.6h196.7"/>
					<path id="Line_15_" class="st9" d="M197.9,5038.6v-244.8"/>
					<path id="Line_16_" class="st9" d="M375.7,5038.6V4794"/>
					<path id="Line_17_" class="st10" d="M189.3,5029h194"/>
					<path id="Oval-17" class="st11" d="M300.3,4812.3c0-31.1,25.3-56.3,56.4-56.3c31.2,0,56.4,25.2,56.4,56.3c0,0,0,0,0,0
						c0,31.1-25.3,56.3-56.4,56.3C325.6,4868.6,300.3,4843.4,300.3,4812.3C300.3,4812.3,300.3,4812.3,300.3,4812.3"/>
				</g>
			</g>
			<path id="Line_18_" class="st12" d="M207.5,4814.6L207.5,4814.6"/>
			<path id="Line_19_" class="st12" d="M215.3,4814.6L215.3,4814.6"/>
			<path id="Line_20_" class="st12" d="M223,4814.6L223,4814.6"/>
			<path id="Path-1208" class="st13" d="M456.8,4796.9c0,0,5,3.3,6.2,4.5"/>
			<path id="Path-1209" class="st13" d="M468.8,4806.8c0,0,3.4,3.7,4.8,5.5"/>
			<path id="Path-1210" class="st13" d="M477.8,4819.1c0,0,2,4.2,2.9,6.8"/>
			<path id="Path-1211" class="st13" d="M483,4833.8c0,0,0.8,2.2,1.3,7.4"/>
			<path id="Path-1212" class="st13" d="M484.3,4849.1c0,0-0.5,4.2-1.2,7.3"/>
			<path id="Path-1213" class="st13" d="M481.2,4864.2c0,0-2.2,5.2-3,6.8"/>
			<path id="Path-1214" class="st13" d="M474.1,4877.7c0,0-3.3,4.6-4.7,5.9"/>
			<path id="Path-1215" class="st13" d="M463.4,4889.1c0,0-4.4,3.5-6.1,4.5"/>
			<path id="Path-1216" class="st13" d="M450.1,4897.2c0,0-4.1,1.9-6.8,2.6"/>
			<path id="Path-1217" class="st13" d="M435.6,4901.2c0,0-2.7,0.5-7.6,0.5"/>
			<path id="Path-1218" class="st13" d="M378.3,4872.5c0,0,3.2,5.6,3.9,6.4"/>
			<path id="Path-1219" class="st13" d="M387.5,4884.9c0,0,4.3,4.1,5.6,5.1"/>
			<path id="Path-1220" class="st13" d="M399.8,4894.2c0,0,3.5,2,6.7,3.5"/>
			<path id="Path-1221" class="st13" d="M414.3,4900.2c0,0,2.2,1.2,7.4,1.2"/>
			<path id="Path-1222" class="st13" d="M434.9,4789.5c0,0-4-0.9-7.7-0.3"/>
			<path id="Path-1208_1_" class="st13" d="M442.6,4790.9c0,0,5.6,1.8,7.1,2.7"/>
			<path id="Path-1223" class="st13" d="M419.2,4789.7c0,0-5,0.9-7.1,1.6"/>
			<path id="Combined-Shape" class="st14" d="M375.4,4866.2c22-7.7,37.8-28.6,37.8-53.1c0-7.3-1.4-14.3-4-20.8
				c-22,7.7-37.8,28.6-37.8,53.1C371.4,4852.8,372.8,4859.8,375.4,4866.2z"/>
			<path id="Line_21_" class="st15" d="M397.3,4798l16.1,16"/>
			<path id="Line_22_" class="st16" d="M398.1,4798.8l14.4,14.3"/>
			<path id="Line_23_" class="st17" d="M389.6,4805l21.7,21.6"/>
			<path id="Line_24_" class="st18" d="M382.6,4812.7l24,23.9"/>
			<path id="Line_25_" class="st19" d="M377.2,4822.7l24.3,24.3"/>
			<path id="Line_26_" class="st20" d="M373.7,4835.4l18.9,18.9"/>
			<path id="Line_27_" class="st21" d="M371.8,4848.9l12,12"/>
			<path id="Oval-17_1_" class="st22" d="M300.3,4812.3c0-31.1,25.3-56.3,56.4-56.3s56.4,25.2,56.4,56.3s-25.3,56.3-56.4,56.3
				S300.3,4843.4,300.3,4812.3"/>
		</g>
	</g>
</g>
</svg>
