<?xml version="1.0" encoding="utf-8"?>
<!-- Generator: Adobe Illustrator 22.0.1, SVG Export Plug-In . SVG Version: 6.00 Build 0)  -->
<svg version="1.1" id="Layer_1" xmlns="http://www.w3.org/2000/svg" xmlns:xlink="http://www.w3.org/1999/xlink" x="0px" y="0px"
	 viewBox="0 0 300 300" style="enable-background:new 0 0 300 300;" xml:space="preserve">
<style type="text/css">
	.st0{fill:#FFFFFF;}
	.st1{fill:#52C9EE;}
	.st2{fill:#F15B4F;}
</style>
<g>
	<g>
		<g>
			<g>
				<rect x="54.6" y="193.5" class="st0" width="78.9" height="40.2"/>
			</g>
		</g>
		<g>
			<g>
				<rect x="54.6" y="131.6" class="st0" width="109.1" height="40.2"/>
			</g>
		</g>
		<g>
			<g>
				<path class="st1" d="M137.7,237.9H50.4v-48.6h87.3V237.9z M58.9,229.5h70.4v-31.7H58.9V229.5z"/>
			</g>
		</g>
		<g>
			<g>
				<path class="st1" d="M168,176H50.4v-48.6H168V176z M58.9,167.5h100.7v-31.7H58.9V167.5z"/>
			</g>
		</g>
		<g>
			<g>
				<g>
					<rect x="54.6" y="69.7" class="st2" width="188.1" height="40.2"/>
				</g>
			</g>
			<g>
				<g>
					<path class="st1" d="M247,114.1H50.4V65.4H247V114.1z M58.9,105.6h179.7V73.9H58.9V105.6z"/>
				</g>
			</g>
		</g>
		<g>
			<g>
				<circle class="st2" cx="242.2" cy="189.2" r="44.4"/>
			</g>
		</g>
		<g>
			<g>
				<path class="st1" d="M242.2,237.9c-26.8,0-48.7-21.8-48.7-48.7c0-26.8,21.8-48.7,48.7-48.7c26.8,0,48.7,21.8,48.7,48.7
					C290.9,216.1,269.1,237.9,242.2,237.9z M242.2,149c-22.2,0-40.2,18-40.2,40.2c0,22.2,18,40.2,40.2,40.2
					c22.2,0,40.2-18,40.2-40.2C282.4,167.1,264.4,149,242.2,149z"/>
			</g>
		</g>
		<g>
			<g>
				<polygon class="st1" points="246.4,216.3 238,216.3 238,176.5 231.9,182.6 225.9,176.6 246.4,156.3 				"/>
			</g>
		</g>
		<g>
			<g>
				<rect x="229.2" y="207.8" class="st1" width="27.2" height="8.4"/>
			</g>
		</g>
		<g>
			<g>
				<polygon class="st2" points="12.4,69.7 38.7,91.8 12.4,113.5 				"/>
			</g>
		</g>
		<g>
			<g>
				<path class="st1" d="M8.2,122.4V60.6l37.1,31.3L8.2,122.4z M16.7,78.7v25.8l15.5-12.8L16.7,78.7z"/>
			</g>
		</g>
	</g>
</g>
</svg>
