<?xml version="1.0" encoding="utf-8"?>
<!-- Generator: Adobe Illustrator 21.0.0, SVG Export Plug-In . SVG Version: 6.00 Build 0)  -->
<svg version="1.1" id="Layer_1" xmlns="http://www.w3.org/2000/svg" xmlns:xlink="http://www.w3.org/1999/xlink" x="0px" y="0px"
	 viewBox="0 0 333 351" style="enable-background:new 0 0 333 351;" xml:space="preserve">
<style type="text/css">
	.st0{fill:none;stroke:#00AEEF;stroke-width:3;stroke-dasharray:429,431;}
	.st1{fill:#FFFFFF;stroke:#CCCCCC;stroke-width:6;stroke-dasharray:327,329;}
	.st2{fill:none;stroke:#CCCCCC;stroke-width:3;stroke-linecap:square;stroke-dasharray:24,26;}
	.st3{fill:none;stroke:#CCCCCC;stroke-width:3;stroke-linecap:square;stroke-dasharray:50,52;}
	.st4{fill:none;stroke:#CCCCCC;stroke-width:3;stroke-linecap:square;stroke-dasharray:93,95;}
	.st5{fill:#FFFFFF;stroke:#CCCCCC;stroke-width:3;stroke-dasharray:327,329;}
	.st6{fill:none;stroke:#CCCCCC;stroke-width:0.75;stroke-linecap:square;stroke-dasharray:93,95;}
	.st7{fill:none;stroke:#CCCCCC;stroke-width:3;stroke-dasharray:260,262;}
	.st8{fill:none;stroke:#CCCCCC;stroke-width:3;stroke-linecap:square;stroke-dasharray:136,138;}
	.st9{fill:none;stroke:#00AEEF;stroke-width:3;stroke-linecap:square;stroke-dasharray:11,13;}
	.st10{fill:none;stroke:#00AEEF;stroke-width:3;stroke-linecap:square;stroke-dasharray:29,31;}
	.st11{fill:none;stroke:#CCCCCC;stroke-width:3;stroke-linecap:square;stroke-dasharray:165,167;}
	.st12{fill:none;stroke:#CCCCCC;stroke-width:3;stroke-linecap:square;stroke-dasharray:162,164;}
	.st13{fill:none;stroke:#CCCCCC;stroke-width:3;stroke-linecap:square;stroke-dasharray:224,226;}
	.st14{fill:none;stroke:#CCCCCC;stroke-width:3;stroke-linecap:square;stroke-dasharray:223,225;}
	.st15{fill:none;stroke:#CCCCCC;stroke-width:3;stroke-linecap:square;stroke-dasharray:11,13;}
	.st16{fill:none;stroke:#CCCCCC;stroke-width:3;stroke-linecap:square;stroke-dasharray:28,30;}
	.st17{fill:none;stroke:#CCCCCC;stroke-width:3;stroke-linecap:square;stroke-dasharray:76,78;}
	.st18{fill:none;stroke:#CCCCCC;stroke-width:3;stroke-linecap:square;stroke-dasharray:30,32;}
	.st19{fill:none;stroke:#CCCCCC;stroke-width:3;stroke-linecap:square;stroke-dasharray:100,102;}
	.st20{fill:none;stroke:#CCCCCC;stroke-width:3;stroke-dasharray:303,305;}
	.st21{fill:none;stroke:#CCCCCC;stroke-width:3;stroke-linecap:round;stroke-dasharray:9,11;}
	.st22{fill:none;stroke:#CCCCCC;stroke-width:3;stroke-linecap:round;stroke-dasharray:17,19;}
	.st23{fill:none;stroke:#CCCCCC;stroke-width:3;stroke-linecap:round;stroke-dasharray:10,12;}
	.st24{fill:#FFFFFF;}
</style>
<desc>Created with Sketch.</desc>
<g id="Photo">
	<path id="Oval-130" class="st0" d="M194.5,70.3C194.5,32.6,225,2,262.7,2C300.4,2,331,32.5,331,70.3c0,0,0,0,0,0
		c0,37.7-30.5,68.3-68.2,68.3C225.1,138.6,194.5,108,194.5,70.3C194.5,70.3,194.5,70.3,194.5,70.3"/>
	<g id="Rectangle-118">
		<path id="path-1_1_" class="st1" d="M158.7,85h93.1v70h-93.1V85z"/>
	</g>
	<path id="Line" class="st2" d="M178.5,181.5l-16.4,16.4"/>
	<path id="Line_1_" class="st2" d="M231,181.9l16.4,16.4"/>
	<path id="Line_2_" class="st3" d="M179.5,181.4h49.2"/>
	<path id="Line_3_" class="st4" d="M159,153.9h92.7"/>
	<g id="Rectangle-118_1_">
		<path id="path-3_1_" class="st5" d="M158.7,85h93.1v70h-93.1V85z"/>
	</g>
	<path id="Line_4_" class="st6" d="M159,153.9h92.7"/>
	<g id="Rectangle-118_2_">
		<path id="path-5_1_" class="st7" d="M167.3,92.7h76v54h-76V92.7z"/>
	</g>
	<path id="Line_5_" class="st8" d="M136.5,198.5v135.3"/>
	<path id="Line_6_" class="st9" d="M89.5,210.5v10"/>
	<path id="Line_7_" class="st9" d="M118.5,210.5v10"/>
	<path id="Line_8_" class="st10" d="M118.5,210.5h-29"/>
	<path id="Line_9_" class="st10" d="M118.5,220.5h-29"/>
	<path id="Line_10_" class="st11" d="M72.5,183.9v164.3"/>
	<path id="Line_11_" class="st12" d="M268.3,187.2v161.3"/>
	<path id="Line_12_" class="st13" d="M282.6,334.4H59.2"/>
	<path id="Line_13_" class="st14" d="M281.5,198.5H59.2"/>
	<path id="Line_14_" class="st15" d="M89.5,187.5v10.2"/>
	<path id="Line_15_" class="st15" d="M118.5,187.5v10.2"/>
	<path id="Line_16_" class="st16" d="M179.5,153.5v27.3"/>
	<path id="Line_17_" class="st16" d="M230.5,153.5v27.3"/>
	<path id="Line_18_" class="st17" d="M103.5,90.5v75"/>
	<path id="Line_19_" class="st18" d="M89.5,187.4h29"/>
	<path id="Line_20_" class="st15" d="M112.5,158.5L105,166"/>
	<path id="Line_21_" class="st15" d="M95.5,158.5l7.5,7.5"/>
	<path id="Line_22_" class="st19" d="M102.5,89.4H3"/>
	<path id="Oval-130_1_" class="st20" d="M156.5,267c0-26.6,21.5-48.2,48.1-48.2s48.1,21.5,48.1,48.1c0,0,0,0,0,0
		c0,26.6-21.5,48.2-48.1,48.2S156.5,293.6,156.5,267C156.5,267,156.5,267,156.5,267"/>
	<path id="Path-1224" class="st20" d="M1,84.9"/>
	<path id="Path-1225" class="st21" d="M208.2,228.6c0,0-4.7-1.1-8.8,0"/>
	<path id="Path-1226" class="st22" d="M196.3,304.6c0,0,6.3,2.2,16.7-0.2"/>
	<path id="Path-1235" class="st21" d="M242.6,266.7c0,0,0.2,3.6-0.7,8.6"/>
	<path id="Path-1236" class="st21" d="M1,84.9"/>
	<path id="Path-1237" class="st21" d="M240.8,279.5c0,0-1.9,5.2-3.7,7.6"/>
	<path id="Path-1238" class="st21" d="M234.4,290.8c0,0-2.9,3.9-5.8,6.1"/>
	<path id="Path-1239" class="st21" d="M224.7,299.5c0,0-4.4,2.8-7.3,3.6"/>
	<path id="Path-1240" class="st21" d="M165.8,267.5c0,0,0,5.5,1,8.3"/>
	<path id="Path-1241" class="st21" d="M168.2,280.4c0,0,1.4,4.5,3.4,7.6"/>
	<path id="Path-1242" class="st21" d="M174.6,291.5c0,0,3.5,4.1,6,6"/>
	<path id="Path-1243" class="st21" d="M184.6,299.9c0,0,4.1,2.3,7.3,3.7"/>
	<path id="Path-1227" class="st23" d="M165.6,263.2c0,0,0.7-5.8,2.3-8.7"/>
	<path id="Path-1228" class="st21" d="M169.2,250.6c0,0,3.5-6.1,4.6-7.4"/>
	<path id="Path-1229" class="st21" d="M176.6,240.4c0,0,3.4-4.2,6.7-5.8"/>
	<path id="Path-1230" class="st21" d="M187.2,232.3c0,0,4.3-2.2,7.8-2.9"/>
	<path id="Path-1227_1_" class="st23" d="M242.3,262.6c0,0-0.7-5.8-2.3-8.7"/>
	<path id="Path-1228_1_" class="st21" d="M238.7,250.3c0,0-3.5-6.1-4.6-7.4"/>
	<path id="Path-1229_1_" class="st21" d="M230.7,239.7c0,0-3.4-4.2-6.7-5.8"/>
	<path id="Path-1230_1_" class="st21" d="M219.9,231.8c0,0-4.3-2.2-7.8-2.9"/>
	<g>
		<g>
			<path id="path-1" class="st24" d="M158.8,85h93.1v70h-93.1V85z"/>
		</g>
		<g>
			<path id="path-3" class="st24" d="M158.8,85h93.1v70h-93.1V85z"/>
		</g>
		<g>
			<path id="path-5" class="st24" d="M167.4,92.7h76v54h-76V92.7z"/>
		</g>
	</g>
</g>
</svg>
