<?xml version="1.0" encoding="utf-8"?>
<!-- Generator: Adobe Illustrator 22.0.1, SVG Export Plug-In . SVG Version: 6.00 Build 0)  -->
<svg version="1.1" id="Layer_1" xmlns="http://www.w3.org/2000/svg" xmlns:xlink="http://www.w3.org/1999/xlink" x="0px" y="0px"
	 viewBox="0 0 300 300" style="enable-background:new 0 0 300 300;" xml:space="preserve">
<style type="text/css">
	.st0{fill:#FFFFFF;}
	.st1{fill:#F15B4F;}
	.st2{fill:#52C9EE;}
</style>
<g>
	<g>
		<g>
			<g>
				<g>
					<rect x="10.6" y="79.7" class="st0" width="278.7" height="174.3"/>
				</g>
			</g>
			<g>
				<g>
					<rect x="10.6" y="46" class="st1" width="278.7" height="33.7"/>
				</g>
			</g>
			<g>
				<g>
					<path class="st2" d="M294.4,259H5.6V41h288.8V259z M15.6,249h268.7V51H15.6V249z"/>
				</g>
			</g>
			<g>
				<g>
					<rect x="10.6" y="74.7" class="st2" width="278.7" height="10"/>
				</g>
			</g>
			<g>
				<g>
					<rect x="37.6" y="110.1" class="st2" width="41.8" height="10"/>
				</g>
			</g>
			<g>
				<g>
					<rect x="37.6" y="144.9" class="st2" width="119.1" height="10"/>
				</g>
			</g>
			<g>
				<g>
					<path class="st2" d="M35.4,62.8c0,2.9-2.3,5.2-5.2,5.2c-2.9,0-5.2-2.3-5.2-5.2c0-2.9,2.3-5.2,5.2-5.2
						C33.1,57.6,35.4,59.9,35.4,62.8z"/>
				</g>
			</g>
			<g>
				<g>
					<path class="st2" d="M55.3,62.8c0,2.9-2.3,5.2-5.2,5.2c-2.9,0-5.2-2.3-5.2-5.2c0-2.9,2.3-5.2,5.2-5.2
						C53,57.6,55.3,59.9,55.3,62.8z"/>
				</g>
			</g>
			<g>
				<g>
					<path class="st2" d="M75.2,62.8c0,2.9-2.3,5.2-5.2,5.2c-2.9,0-5.2-2.3-5.2-5.2c0-2.9,2.3-5.2,5.2-5.2
						C72.9,57.6,75.2,59.9,75.2,62.8z"/>
				</g>
			</g>
			<g>
				<g>
					<rect x="37.6" y="179.8" class="st2" width="95" height="10"/>
				</g>
			</g>
			<g>
				<g>
					<rect x="37.6" y="214.6" class="st2" width="83" height="10"/>
				</g>
			</g>
		</g>
		<g>
			<g>
				<g>
					<g>
						<polygon class="st2" points="188.4,228.2 160.5,200.3 187.5,173.7 194.5,180.9 174.7,200.4 195.4,221.1 						"/>
					</g>
				</g>
				<g>
					<g>
						<polygon class="st2" points="240.6,228.2 233.5,221.1 254.2,200.4 234.4,180.9 241.4,173.7 268.5,200.3 						"/>
					</g>
				</g>
			</g>
			<g>
				<g>
					
						<rect x="188.5" y="196" transform="matrix(0.396 -0.9183 0.9183 0.396 -55.1351 318.1367)" class="st2" width="51.5" height="10"/>
				</g>
			</g>
		</g>
	</g>
</g>
</svg>
